<?xml version="1.0" standalone="no"?>
<!DOCTYPE svg PUBLIC "-//W3C//DTD SVG 20010904//EN"
 "http://www.w3.org/TR/2001/REC-SVG-20010904/DTD/svg10.dtd">
<svg version="1.0" xmlns="http://www.w3.org/2000/svg"
 width="1050.000000pt" height="1050.000000pt" viewBox="0 0 1050.000000 1050.000000"
 preserveAspectRatio="xMidYMid meet">
<metadata>
Created by potrace 1.11, written by Peter Selinger 2001-2013
</metadata>
<g transform="translate(0.000000,1050.000000) scale(0.100000,-0.100000)"
fill="#000000" stroke="none">
<path d="M4969 8207 c8 -10 7 -14 -4 -14 -8 0 -15 4 -15 9 0 4 -5 8 -11 8 -5
0 -8 -4 -4 -9 3 -5 1 -13 -5 -16 -6 -4 -9 -3 -8 2 2 4 -1 8 -7 8 -5 0 -9 -4
-7 -10 1 -5 -3 -3 -10 6 -16 20 -48 21 -41 1 5 -12 2 -12 -16 -2 -15 8 -26 8
-34 1 -8 -6 -18 -6 -27 -1 -8 5 -21 5 -31 0 -9 -5 -20 -6 -24 -2 -5 4 -5 1 -1
-5 4 -8 2 -13 -6 -14 -7 0 -21 -2 -31 -4 -9 -2 -15 0 -13 4 7 10 -32 7 -41 -4
-5 -4 -3 -5 4 -1 6 3 15 1 19 -6 4 -7 4 -10 -1 -6 -4 4 -14 3 -21 -3 -8 -7
-14 -6 -20 2 -5 8 -3 9 6 4 8 -5 11 -4 6 3 -9 15 -36 3 -37 -17 0 -12 -2 -12
-9 4 -5 11 -9 14 -9 7 -1 -7 -5 -11 -10 -7 -5 3 -13 -4 -16 -16 -5 -16 -9 -18
-15 -9 -5 8 -16 15 -24 16 -9 1 -14 -2 -10 -7 3 -5 -4 -9 -16 -9 -11 0 -23 -7
-27 -16 -4 -10 -8 -12 -13 -5 -4 8 -14 5 -29 -8 -12 -11 -33 -18 -47 -16 -19
2 -24 -1 -19 -13 4 -12 3 -13 -10 -2 -12 10 -15 10 -15 0 0 -7 -7 -10 -15 -6
-8 3 -14 2 -14 -2 3 -19 -3 -22 -23 -11 l-23 12 20 -24 c11 -13 13 -18 5 -12
-13 10 -38 11 -60 3 -3 -1 -9 -2 -13 -1 -5 1 -6 -3 -3 -8 3 -5 -1 -14 -9 -21
-8 -7 -15 -9 -15 -5 0 4 -6 2 -13 -4 -8 -6 -17 -8 -20 -4 -4 3 -7 -2 -7 -13 0
-14 -2 -16 -9 -6 -7 11 -9 10 -15 -3 -3 -9 -10 -13 -16 -10 -5 3 -10 1 -10 -5
0 -6 -4 -8 -10 -5 -5 3 -10 -2 -10 -12 0 -15 -2 -16 -10 -3 -6 10 -10 11 -10
3 0 -7 -7 -13 -16 -13 -8 0 -13 -4 -10 -9 7 -11 -22 -23 -36 -14 -7 3 -8 1 -4
-5 4 -7 1 -12 -8 -12 -9 0 -16 -4 -16 -9 0 -12 -56 -31 -65 -23 -3 4 -3 -2 1
-13 6 -15 4 -17 -10 -12 -9 4 -15 3 -13 -1 6 -9 -19 -33 -27 -25 -3 4 -6 1 -6
-5 0 -7 -7 -12 -16 -12 -8 0 -12 -4 -9 -10 3 -5 -3 -10 -15 -10 -14 0 -19 -4
-14 -12 5 -8 2 -9 -10 -5 -10 4 -15 3 -11 -3 3 -6 1 -10 -5 -10 -6 0 -8 -5 -4
-12 5 -8 0 -7 -11 2 -11 9 -16 10 -11 2 8 -13 -21 -49 -31 -38 -9 9 -53 -35
-53 -53 0 -14 -1 -14 -10 -1 -8 12 -10 12 -10 1 0 -8 -13 -27 -30 -43 -16 -15
-30 -33 -30 -38 0 -6 -3 -9 -7 -9 -22 4 -33 -2 -27 -13 5 -8 2 -9 -10 -5 -11
4 -15 3 -10 -4 3 -6 -3 -19 -15 -30 -12 -11 -21 -24 -21 -30 0 -5 -11 -14 -25
-19 -18 -7 -23 -14 -18 -26 5 -13 2 -16 -10 -11 -10 4 -16 2 -14 -6 1 -7 -4
-11 -11 -9 -8 1 -11 -2 -7 -7 8 -14 -16 -51 -33 -51 -7 0 -11 -4 -7 -10 3 -5
-3 -18 -14 -29 -13 -13 -16 -21 -8 -25 7 -2 4 -5 -6 -5 -10 -1 -22 -13 -27
-27 -6 -14 -14 -23 -19 -20 -5 4 -7 -4 -3 -16 3 -11 1 -19 -4 -16 -5 3 -16 -1
-24 -10 -13 -14 -13 -15 1 -10 9 4 16 1 16 -8 0 -7 -4 -11 -9 -8 -11 7 -38
-27 -32 -38 3 -5 0 -8 -6 -8 -6 0 -8 -4 -5 -10 3 -5 1 -10 -4 -10 -6 0 -11 -5
-11 -11 0 -5 6 -7 13 -4 6 3 2 -2 -10 -11 -13 -9 -23 -23 -23 -30 0 -8 -6 -14
-12 -14 -9 0 -8 -4 2 -10 13 -8 12 -10 -4 -10 -15 0 -16 -3 -7 -14 9 -11 9
-16 0 -22 -8 -5 -9 -3 -4 6 5 9 4 11 -3 6 -7 -4 -12 -16 -12 -27 0 -11 -4 -17
-10 -14 -6 4 -7 -1 -3 -11 4 -11 3 -15 -4 -11 -7 5 -9 0 -6 -13 3 -13 0 -20
-8 -20 -11 0 -11 -2 1 -10 13 -8 12 -10 -3 -10 -10 0 -15 -5 -12 -10 4 -6 1
-18 -7 -27 -9 -12 -9 -15 -1 -9 9 5 11 2 7 -8 -3 -9 -10 -14 -15 -11 -4 3 -6
-4 -4 -15 2 -11 0 -20 -4 -20 -5 0 -11 -15 -14 -32 -9 -59 -14 -72 -25 -76 -7
-2 -12 -8 -12 -13 0 -6 4 -8 9 -5 5 4 8 -1 7 -10 -1 -8 -9 -20 -17 -25 -11 -7
-11 -9 4 -9 9 0 17 -4 17 -9 0 -5 -7 -8 -16 -7 -9 0 -18 -7 -19 -17 -2 -11 1
-15 8 -10 7 4 6 -1 -2 -10 -11 -14 -11 -20 0 -34 10 -11 10 -14 2 -9 -9 5 -13
0 -13 -14 0 -14 -4 -19 -12 -14 -10 6 -10 4 -3 -7 13 -18 12 -38 -4 -68 -7
-13 -8 -21 -3 -17 15 9 3 -62 -16 -94 -13 -23 -13 -23 1 -6 15 18 16 18 14 -3
-1 -11 -5 -21 -9 -21 -4 0 -8 -5 -8 -11 0 -5 6 -7 13 -3 8 6 8 3 -1 -9 -8 -9
-11 -21 -7 -27 3 -5 1 -10 -6 -10 -7 0 -6 -8 4 -24 15 -23 15 -24 -6 -18 -21
5 -21 4 3 -17 14 -12 19 -19 11 -15 -11 5 -13 2 -9 -14 4 -13 1 -22 -5 -22 -8
0 -7 -4 2 -9 11 -7 11 -9 0 -14 -11 -4 -11 -6 -1 -6 9 -1 10 -6 3 -19 -7 -14
-6 -25 6 -42 9 -13 12 -20 6 -17 -16 10 -22 -40 -7 -61 7 -11 11 -22 8 -24 -2
-3 -6 -15 -9 -26 -2 -15 0 -19 11 -15 10 4 12 0 8 -11 -3 -9 -10 -16 -16 -16
-5 0 -3 -7 5 -15 9 -8 13 -24 10 -35 -3 -11 0 -26 6 -34 7 -9 8 -17 2 -20 -5
-3 -7 -15 -4 -26 3 -11 9 -18 13 -15 4 3 4 -11 0 -30 -5 -22 -4 -38 3 -42 5
-3 7 -1 3 5 -3 6 -2 13 3 16 10 7 9 -20 -2 -30 -4 -4 1 -13 11 -21 9 -8 11
-12 5 -8 -7 3 -13 1 -13 -4 0 -6 7 -11 16 -11 8 0 12 -5 9 -10 -4 -6 -11 -8
-16 -5 -5 3 -6 -1 -3 -9 3 -9 14 -16 23 -16 14 -1 14 -2 -1 -11 -10 -5 -18
-15 -18 -22 0 -7 4 -6 10 3 8 12 10 11 10 -5 0 -12 6 -27 13 -34 10 -11 10
-13 0 -7 -7 4 -13 2 -13 -3 0 -6 5 -11 10 -11 6 0 10 -7 10 -16 0 -9 5 -12 13
-8 9 5 9 4 0 -6 -9 -9 -9 -19 -2 -33 8 -14 8 -18 0 -13 -6 4 -11 2 -11 -3 0
-6 7 -11 15 -11 9 0 12 -6 8 -17 -4 -10 -2 -14 4 -10 6 4 11 -3 11 -18 0 -13
7 -31 16 -40 14 -15 14 -35 0 -35 -3 0 -2 5 2 12 5 7 3 8 -6 3 -10 -6 -10 -10
2 -19 8 -6 13 -17 10 -25 -3 -8 0 -11 6 -7 5 3 13 -2 17 -12 12 -27 14 -43 4
-37 -5 4 -6 -1 -3 -9 3 -9 10 -14 14 -11 4 3 11 -2 14 -11 3 -8 2 -12 -4 -9
-5 3 -8 -3 -7 -14 1 -15 5 -17 13 -10 9 8 11 5 7 -12 -4 -14 -2 -20 4 -16 6 4
9 -4 7 -18 -1 -15 3 -25 11 -25 7 0 16 -7 19 -16 4 -10 2 -13 -7 -9 -6 4 -5 1
3 -7 8 -7 15 -25 14 -40 -1 -15 2 -27 5 -26 20 2 29 -4 34 -22 3 -11 1 -18 -3
-15 -11 7 -7 -22 5 -32 4 -4 5 -1 0 7 -4 8 1 6 12 -5 15 -14 18 -25 11 -37 -6
-14 -5 -16 7 -12 10 4 15 0 15 -14 0 -11 7 -22 15 -26 8 -3 15 -11 15 -18 0
-10 -2 -10 -9 0 -6 11 -10 10 -15 -4 -4 -10 -4 -16 -1 -12 4 3 20 -8 36 -24
29 -31 39 -56 17 -42 -6 4 -3 -4 8 -18 10 -14 22 -24 25 -22 8 5 24 -28 28
-57 0 -5 7 -7 14 -3 8 5 8 2 -2 -9 -12 -15 -11 -17 6 -17 27 0 34 -9 22 -31
-7 -15 -6 -17 6 -13 11 4 13 2 9 -9 -3 -8 0 -18 5 -22 6 -3 9 -11 6 -16 -3 -5
0 -6 8 -3 8 3 18 0 23 -7 5 -8 3 -10 -5 -4 -7 4 -5 -4 4 -19 9 -14 21 -23 26
-20 5 3 6 -1 3 -9 -3 -8 2 -17 11 -21 10 -3 15 -13 12 -21 -4 -8 2 -16 13 -20
10 -3 24 -13 32 -23 12 -16 11 -16 -7 -2 -13 10 -10 2 9 -22 16 -22 33 -35 40
-31 6 4 5 -1 -3 -11 -8 -9 -10 -16 -5 -15 19 3 34 -1 34 -12 0 -5 -4 -7 -10
-4 -6 4 -7 -1 -3 -11 4 -11 8 -13 11 -6 2 7 8 12 14 12 6 0 7 -7 4 -16 -5 -13
-3 -14 7 -6 10 8 13 5 15 -16 1 -14 10 -33 19 -42 16 -14 16 -13 3 5 -7 11 -1
8 14 -7 15 -16 32 -28 38 -28 7 0 6 -5 -2 -15 -11 -13 -10 -14 6 -9 10 4 16 4
12 -1 -4 -4 0 -14 10 -21 13 -9 19 -9 25 -1 5 7 5 1 2 -12 -5 -16 -4 -21 4
-17 10 7 16 -7 12 -28 -1 -5 6 -3 15 5 10 8 15 9 11 2 -4 -7 1 -14 13 -18 11
-3 20 -11 20 -16 0 -6 -5 -7 -12 -3 -7 4 -8 3 -4 -5 6 -9 11 -9 22 0 12 10 13
9 8 -6 -6 -14 -4 -16 7 -11 8 4 5 0 -6 -9 -20 -17 -20 -17 3 -10 13 4 22 2 22
-5 0 -6 5 -8 12 -4 8 5 9 2 4 -11 -5 -15 -4 -16 9 -5 13 11 16 11 13 -1 -2 -8
3 -13 10 -11 7 1 12 -3 10 -10 -2 -7 7 -23 19 -35 17 -17 22 -19 27 -7 3 8 2
12 -3 9 -5 -3 -12 -1 -15 4 -4 5 0 8 6 7 7 -1 15 -6 17 -11 2 -6 17 -16 33
-22 19 -8 27 -17 22 -25 -5 -8 -2 -9 10 -5 12 5 19 0 26 -18 5 -14 12 -25 15
-25 4 0 3 5 0 10 -3 6 -2 10 3 10 6 0 13 -7 16 -16 3 -9 13 -14 20 -11 10 4
13 0 11 -14 -2 -10 0 -19 6 -19 5 0 9 6 9 13 0 8 3 7 9 -3 6 -8 7 -18 4 -23
-3 -5 5 -4 17 3 15 8 20 8 16 1 -4 -6 -2 -11 4 -11 6 0 8 -6 4 -12 -4 -7 -4
-10 1 -6 4 4 14 3 22 -3 7 -6 13 -8 13 -3 0 5 5 2 11 -6 9 -13 10 -13 6 0 -2
8 -10 14 -16 13 -6 -2 -11 2 -11 7 0 6 4 10 8 10 13 0 43 -36 37 -43 -3 -4 -2
-5 2 -2 3 3 13 -1 21 -8 13 -9 14 -9 8 1 -4 6 -3 12 3 12 5 0 13 -9 16 -21 4
-11 9 -18 12 -15 3 2 16 1 30 -5 16 -6 22 -6 18 1 -4 6 4 5 19 -1 14 -7 23
-15 21 -19 -6 -9 19 -20 46 -20 13 0 18 4 13 12 -4 7 -3 8 5 4 6 -4 9 -11 6
-16 -3 -5 -1 -11 5 -15 5 -3 10 -1 10 4 0 6 9 2 20 -9 15 -15 25 -18 44 -11
19 8 25 6 34 -12 7 -14 11 -17 11 -7 1 13 3 13 10 1 8 -12 12 -12 25 -2 12 10
16 10 16 2 0 -7 5 -9 10 -6 6 3 10 2 10 -3 0 -5 9 -12 21 -15 15 -4 18 -2 10
7 -7 8 -4 12 10 12 10 0 19 -7 19 -16 0 -13 1 -13 10 0 8 13 10 12 10 -3 0
-10 5 -15 10 -12 6 4 8 10 6 14 -3 4 2 8 10 8 10 0 14 -7 11 -17 -2 -9 1 -17
8 -17 8 0 11 7 7 16 -4 12 0 12 17 -3 18 -17 21 -17 15 -3 -7 19 -4 20 20 11
9 -3 14 -10 11 -14 -7 -11 22 -6 32 5 4 4 2 5 -6 0 -10 -6 -12 -4 -6 5 6 10
11 9 22 -5 13 -18 13 -18 13 1 0 15 2 16 9 4 6 -8 7 -19 5 -25 -3 -5 1 -2 9 8
11 14 16 15 20 5 4 -10 6 -10 6 0 1 6 6 12 12 12 5 0 7 -5 4 -10 -9 -14 8 -12
24 3 9 7 11 7 8 1 -4 -7 0 -14 8 -17 9 -4 12 -1 9 7 -3 7 2 13 10 13 8 0 13
-3 11 -7 -2 -4 2 -7 10 -7 8 0 12 4 9 9 -3 4 0 8 5 8 6 0 11 -8 12 -17 0 -15
2 -15 9 2 5 11 9 15 9 9 1 -6 8 -11 16 -11 11 0 12 4 3 14 -8 11 -7 12 6 7 9
-3 16 -9 16 -13 0 -10 51 -6 58 5 6 8 32 13 84 15 9 0 19 7 22 15 6 17 26 10
26 -9 0 -7 -4 -6 -10 3 -6 9 -10 10 -10 3 0 -20 22 -27 32 -10 5 10 15 14 25
10 12 -5 14 -3 8 8 -7 12 -6 12 7 1 13 -10 22 -11 37 -2 12 6 21 8 21 4 0 -3
6 -1 13 5 8 6 17 8 20 4 4 -3 13 -1 21 6 11 9 15 9 19 -1 4 -8 6 -7 6 4 1 10
4 17 9 16 4 0 15 2 26 7 12 5 21 3 27 -6 6 -10 9 -10 9 -1 0 6 7 12 15 12 8 0
15 5 15 11 0 8 5 7 15 -1 13 -11 14 -10 10 3 -4 8 -1 18 6 23 8 4 10 3 5 -4
-4 -7 -1 -12 8 -12 9 0 16 6 16 13 1 7 6 5 14 -5 12 -17 26 -15 26 4 0 5 -5 6
-12 2 -7 -5 -8 -3 -4 5 5 7 11 10 14 7 3 -3 12 0 20 7 13 10 14 9 8 -3 -4 -8
2 -4 14 10 12 14 18 18 14 10 -5 -10 0 -8 15 4 22 20 22 20 16 0 -6 -18 -6
-18 8 -1 9 11 21 15 32 10 12 -4 16 -3 11 5 -4 6 3 12 16 14 14 2 22 9 20 18
-2 8 0 12 4 8 4 -4 14 -2 22 5 13 10 14 9 8 -1 -7 -11 -4 -12 11 -3 11 6 23 7
27 3 4 -3 4 2 0 13 -6 15 -4 17 10 12 13 -5 17 -3 13 6 -3 8 1 14 9 14 7 0 11
-4 8 -8 -2 -4 0 -11 6 -14 6 -4 9 -1 8 7 -2 7 5 13 15 13 10 0 22 6 26 14 5 8
14 10 22 6 9 -6 11 -3 6 8 -3 10 -2 17 2 17 5 0 12 -6 14 -12 3 -8 6 -6 6 4 1
10 4 17 9 17 19 -3 33 2 27 11 -3 6 1 11 9 11 32 3 37 4 44 14 13 18 53 36 65
29 7 -4 9 -4 5 1 -9 10 35 45 64 50 12 3 26 10 32 16 8 8 4 8 -14 0 -24 -11
-24 -11 -6 3 11 9 28 16 39 16 14 0 17 5 13 16 -6 15 -4 15 11 3 11 -9 14 -10
9 -1 -4 7 -1 12 8 12 9 0 16 5 16 10 0 6 5 10 11 10 13 0 53 31 60 45 2 6 7 9
11 8 5 -2 8 2 8 7 0 5 3 9 8 7 4 -1 9 3 11 8 2 6 17 16 32 24 16 7 26 17 23
22 -3 5 4 9 16 9 14 0 19 4 14 12 -5 7 -2 9 9 5 11 -4 14 -2 10 9 -3 9 0 14 8
12 8 -2 13 3 12 9 -2 7 0 12 5 12 19 -3 33 2 27 11 -3 6 1 10 9 10 8 0 20 9
26 20 6 11 15 18 21 15 8 -6 13 8 10 27 0 4 7 4 16 1 11 -4 14 -3 9 5 -4 7 -2
12 4 12 6 0 9 4 5 9 -3 5 0 13 6 17 8 4 9 3 5 -4 -4 -7 -3 -12 2 -12 5 0 14
11 20 25 6 14 19 25 28 25 10 0 15 3 11 6 -8 9 16 33 27 26 5 -3 6 2 3 12 -4
9 -3 15 1 13 4 -2 23 12 42 32 19 19 28 30 20 26 -9 -5 -8 0 4 14 12 13 26 19
35 16 8 -3 12 -3 9 1 -12 11 12 45 25 37 7 -4 5 2 -3 12 -8 10 -10 16 -3 12 7
-5 17 1 23 13 6 11 15 18 19 15 5 -3 12 7 15 20 4 14 10 24 14 21 4 -2 13 2
20 10 10 11 10 14 0 14 -7 1 0 8 15 16 15 8 25 19 22 24 -4 6 -1 10 5 10 6 0
8 5 4 12 -5 8 -2 9 9 5 16 -6 23 8 18 36 -1 5 2 6 7 3 4 -2 14 -1 22 5 11 6
12 9 2 9 -7 0 -10 5 -7 10 4 6 11 8 16 5 8 -6 13 9 10 29 -1 5 5 6 14 2 9 -3
14 -2 11 3 -3 5 1 14 9 21 8 7 12 16 9 21 -5 8 10 13 29 10 4 -1 7 4 6 11 -1
7 -1 22 0 33 1 17 3 18 11 5 6 -9 10 -10 10 -3 0 7 10 22 23 34 12 12 16 19
10 15 -7 -4 -13 -2 -13 3 0 6 6 11 13 11 17 0 39 38 31 52 -4 6 -3 8 3 5 6 -4
14 0 17 9 3 8 2 13 -3 10 -14 -9 -21 20 -8 33 8 8 5 9 -10 7 -12 -3 -20 1 -20
9 0 8 5 12 11 8 6 -3 -2 6 -17 20 -19 17 -24 27 -15 30 10 4 10 6 1 6 -7 1
-13 8 -13 17 0 8 -4 13 -9 9 -11 -6 -26 33 -17 42 3 4 -3 12 -14 20 -11 8 -20
24 -20 36 0 18 -2 19 -10 7 -5 -8 -10 -10 -10 -4 0 5 6 16 13 23 6 8 8 11 2 9
-14 -8 -32 14 -29 35 1 9 -3 15 -9 14 -7 -1 -11 6 -11 16 1 10 -5 17 -15 17
-14 0 -14 2 -1 10 10 6 11 10 3 10 -7 0 -13 7 -13 16 0 8 -4 12 -10 9 -5 -3
-10 1 -10 9 0 9 -6 16 -12 16 -9 0 -8 4 2 10 10 6 11 10 3 10 -7 0 -13 7 -13
15 0 8 -5 15 -12 15 -6 0 -8 3 -5 7 4 3 -1 12 -11 20 -10 9 -11 12 -2 7 11 -6
10 -2 -3 13 -9 11 -14 22 -11 26 3 3 -3 12 -15 19 -12 7 -21 23 -21 36 0 14
-4 21 -11 16 -8 -4 -9 0 -4 15 4 15 3 21 -7 19 -7 -2 -12 5 -12 14 1 10 -1 17
-5 16 -18 -2 -24 3 -12 11 8 5 10 14 6 21 -6 10 -11 9 -22 -5 -7 -11 -13 -15
-13 -10 0 5 -7 -1 -16 -13 -8 -12 -12 -28 -8 -35 5 -8 2 -7 -9 2 -16 13 -17
12 -7 -13 7 -20 7 -25 -1 -20 -8 5 -10 -1 -7 -20 4 -20 0 -31 -16 -41 -11 -8
-16 -15 -11 -15 6 0 2 -5 -7 -11 -10 -5 -15 -16 -12 -24 4 -8 1 -15 -6 -15 -6
0 -9 -4 -5 -9 3 -5 -1 -15 -8 -23 -8 -7 -12 -19 -9 -27 3 -9 0 -11 -8 -6 -10
6 -12 4 -7 -8 4 -10 2 -16 -5 -14 -7 1 -13 -4 -14 -10 -1 -7 -2 -18 -3 -24 0
-5 -6 -7 -13 -3 -7 5 -9 2 -5 -9 3 -9 0 -18 -9 -21 -8 -3 -14 -14 -14 -25 0
-11 -9 -22 -19 -26 -13 -4 -18 -12 -14 -22 4 -11 2 -14 -5 -9 -7 4 -10 2 -7
-7 3 -7 -6 -26 -20 -41 -27 -29 -33 -42 -13 -30 7 5 8 3 4 -5 -5 -7 -14 -10
-22 -7 -8 3 -11 0 -8 -8 3 -8 0 -17 -7 -22 -8 -4 -10 -3 -5 4 4 7 5 12 2 12
-3 0 -10 -10 -17 -21 -7 -15 -8 -19 0 -15 7 4 9 1 5 -8 -3 -9 -11 -14 -17 -13
-7 1 -11 -4 -10 -10 2 -7 -2 -13 -8 -13 -5 0 -8 -4 -4 -9 3 -5 -4 -12 -15 -16
-11 -4 -18 -11 -15 -16 4 -5 -1 -12 -10 -15 -9 -4 -14 -13 -11 -20 3 -7 -4
-16 -15 -19 -10 -4 -26 -20 -34 -36 -9 -16 -20 -29 -26 -29 -6 0 -8 -4 -5 -9
3 -5 -1 -12 -10 -15 -9 -3 -12 -11 -8 -18 5 -8 2 -9 -10 -5 -14 5 -17 3 -12
-8 3 -9 0 -15 -9 -15 -8 0 -15 -7 -15 -16 0 -8 -4 -13 -9 -10 -5 3 -11 -4 -14
-15 -4 -14 -11 -20 -21 -16 -10 4 -13 1 -10 -8 3 -7 -4 -19 -16 -25 -11 -6
-17 -16 -14 -22 5 -8 1 -9 -10 -5 -10 4 -15 3 -11 -3 3 -6 1 -10 -5 -10 -6 0
-8 -4 -5 -10 3 -5 -1 -10 -10 -10 -8 0 -18 -7 -21 -15 -4 -8 -10 -12 -15 -9
-5 3 -9 -2 -9 -10 0 -8 -5 -18 -12 -22 -7 -5 -8 -3 -3 7 5 8 -8 -3 -28 -23
-35 -37 -56 -50 -41 -26 4 7 3 8 -5 4 -6 -4 -8 -12 -5 -18 5 -8 1 -9 -11 -4
-15 5 -16 4 -5 -9 10 -12 10 -15 -3 -15 -8 0 -25 -12 -37 -27 -12 -16 -19 -22
-15 -15 3 6 2 12 -3 12 -6 0 -13 -7 -16 -16 -3 -9 -11 -12 -18 -8 -8 5 -9 2
-5 -10 4 -10 3 -15 -3 -11 -6 3 -10 1 -10 -4 0 -6 -6 -11 -14 -11 -8 0 -16 -4
-18 -8 -1 -4 -18 -19 -37 -32 -20 -13 -31 -18 -27 -9 4 7 -2 4 -13 -9 -11 -13
-29 -24 -41 -25 -11 -1 -20 -5 -20 -9 0 -4 -16 -15 -35 -24 -19 -9 -35 -21
-35 -28 0 -6 -5 -4 -10 4 -8 12 -10 12 -10 1 0 -9 -7 -11 -21 -8 -16 4 -18 3
-9 -8 9 -10 5 -13 -20 -11 -18 1 -36 -4 -43 -13 -10 -14 -10 -14 5 -3 12 10
18 10 24 1 4 -7 3 -9 -4 -5 -6 3 -14 2 -17 -4 -5 -8 -11 -8 -20 0 -10 8 -15 8
-21 -1 -5 -8 -3 -9 6 -4 8 5 11 4 6 -3 -4 -6 -13 -9 -20 -6 -7 3 -16 -2 -19
-10 -4 -10 -13 -13 -23 -9 -13 5 -15 3 -10 -8 4 -8 1 -6 -7 4 -14 16 -15 16
-20 -4 -5 -19 -8 -20 -21 -10 -13 11 -17 10 -22 -3 -5 -13 -10 -14 -20 -5 -10
9 -12 6 -9 -13 4 -22 4 -22 -10 -4 -14 18 -15 18 -15 2 0 -11 -4 -15 -12 -9
-18 11 -39 13 -33 3 3 -5 1 -11 -5 -15 -5 -3 -10 0 -11 7 0 7 -5 3 -11 -9 -13
-26 -25 -30 -25 -8 0 8 5 11 10 8 6 -3 7 -1 3 5 -9 15 -38 3 -32 -14 7 -18 1
-18 -18 2 -14 13 -16 14 -16 0 0 -8 -4 -18 -10 -21 -6 -4 -7 1 -3 12 6 16 5
16 -10 5 -9 -8 -21 -11 -27 -7 -5 3 -10 2 -10 -3 0 -5 -9 -12 -20 -15 -11 -3
-18 -2 -15 2 2 4 -33 7 -78 6 -50 -1 -85 2 -89 9 -5 7 -8 3 -8 -9 0 -17 -2
-17 -10 -5 -8 13 -10 12 -10 -3 0 -15 -2 -16 -14 -5 -8 7 -12 16 -10 19 2 3
-3 6 -11 6 -8 0 -12 -4 -9 -9 3 -4 0 -8 -6 -8 -6 0 -8 -5 -4 -11 4 -8 0 -8
-15 0 -25 14 -28 23 -3 15 14 -5 14 -4 2 4 -8 6 -19 8 -24 4 -17 -10 -46 -10
-53 1 -3 6 -1 7 5 3 6 -3 13 -2 16 3 7 11 -13 9 -33 -3 -10 -6 -12 -5 -7 2 10
16 -7 15 -23 0 -11 -11 -12 -10 -6 0 5 9 1 12 -11 10 -11 -2 -18 2 -17 10 4
16 -9 16 -26 0 -11 -10 -13 -10 -7 0 5 7 1 12 -9 12 -9 0 -14 -4 -11 -8 3 -5
-1 -9 -9 -9 -7 0 -12 8 -10 19 3 15 1 16 -17 7 -15 -8 -19 -8 -14 0 4 6 2 11
-4 11 -6 0 -9 4 -6 8 3 5 -1 9 -9 9 -8 0 -12 -4 -9 -9 3 -4 -2 -8 -11 -8 -9 0
-13 5 -10 11 4 6 1 10 -6 8 -27 -3 -40 1 -34 11 3 6 -1 10 -10 10 -10 0 -13 5
-9 13 4 6 4 9 -1 5 -4 -4 -14 -3 -21 2 -8 8 -17 6 -29 -7 -17 -16 -17 -16 -10
7 7 23 7 24 -10 10 -17 -14 -18 -13 -12 2 3 10 1 20 -5 24 -7 4 -8 3 -4 -4 4
-7 2 -12 -3 -12 -6 0 -11 5 -11 11 0 6 -7 9 -14 6 -10 -4 -13 -1 -10 8 4 10
-1 12 -18 8 -17 -3 -19 -2 -9 5 11 8 9 11 -8 17 -12 3 -19 11 -16 16 3 5 -1 6
-9 3 -11 -4 -16 0 -17 12 0 12 -3 14 -6 6 -4 -9 -10 -7 -22 7 -10 12 -21 18
-25 14 -3 -3 -6 1 -6 11 0 9 -4 14 -10 11 -5 -3 -10 1 -10 10 0 12 -6 15 -22
10 -13 -3 -18 -3 -13 2 6 4 11 14 13 22 2 11 0 12 -11 3 -11 -9 -19 -6 -40 17
-14 16 -23 32 -19 36 3 3 -1 3 -11 -1 -10 -4 -17 -1 -17 6 0 7 -13 26 -30 41
-16 16 -25 29 -18 29 6 0 8 3 5 6 -4 4 -14 1 -22 -6 -9 -7 -15 -9 -14 -4 4 21
-2 45 -9 40 -4 -2 -14 5 -22 17 -12 21 -12 21 6 7 18 -14 18 -14 5 3 -7 9 -20
17 -27 17 -8 0 -11 6 -7 17 5 12 2 15 -10 10 -10 -4 -16 -2 -14 6 1 7 -3 11
-10 10 -7 -2 -10 4 -7 12 4 8 1 15 -5 15 -6 0 -10 3 -10 8 3 18 -2 32 -12 32
-6 0 -17 7 -25 15 -9 9 -11 15 -4 15 6 0 8 5 5 10 -4 6 -11 7 -17 4 -6 -4 -8
1 -3 16 5 17 4 21 -6 15 -9 -6 -11 -4 -6 8 4 12 2 14 -10 10 -12 -5 -15 -2
-10 10 4 12 1 17 -11 17 -15 0 -15 2 -2 10 13 8 12 10 -4 10 -14 0 -16 3 -7
13 14 17 2 30 -15 16 -9 -8 -11 -5 -7 10 3 13 1 21 -6 21 -7 0 -9 -5 -5 -12 5
-7 3 -8 -6 -3 -10 6 -9 11 4 21 10 6 12 14 6 16 -5 1 -1 9 11 16 12 8 18 9 15
3 -4 -7 -1 -8 8 -5 9 3 13 10 10 15 -5 8 9 13 29 10 4 0 7 5 7 13 0 9 7 13 19
11 14 -3 18 1 14 11 -4 10 0 12 11 8 11 -4 16 -2 14 7 -2 8 4 13 13 11 9 -1
30 11 47 28 18 17 32 26 32 20 0 -5 5 -10 11 -10 5 0 7 5 4 10 -3 6 1 10 9 10
9 0 21 9 28 19 6 10 17 17 24 14 6 -2 15 1 20 8 5 8 3 10 -6 4 -9 -5 -11 -4
-6 4 4 6 11 9 16 6 5 -3 18 5 30 17 19 21 21 21 15 3 -5 -15 -1 -13 15 8 12
15 28 27 36 27 10 0 12 5 8 13 -5 7 0 6 11 -3 11 -9 16 -10 11 -2 -4 7 -1 12
9 12 9 0 13 5 10 10 -5 9 15 15 38 11 4 0 7 3 7 9 0 5 8 10 18 10 15 0 15 2 2
11 -12 9 -11 10 8 6 12 -3 20 -2 17 3 -3 4 7 11 20 14 14 4 23 11 20 16 -3 6
1 10 10 10 9 0 13 5 9 11 -4 8 0 8 15 0 17 -9 21 -9 19 1 -2 7 3 12 10 10 6
-1 12 3 12 9 0 5 6 7 13 3 7 -5 6 0 -3 11 -11 14 -11 17 -1 11 8 -5 17 -3 22
5 7 12 9 12 9 0 0 -8 8 -4 21 10 11 13 18 18 14 12 -10 -21 24 -3 36 18 5 10
15 18 22 16 7 -1 11 4 9 12 -3 12 -1 12 13 1 9 -7 15 -9 13 -4 -2 5 1 9 5 9 5
0 13 8 19 18 7 14 13 16 23 7 11 -10 13 -8 10 9 -2 14 1 18 11 14 8 -3 14 0
14 7 0 6 4 9 9 5 5 -3 13 4 16 15 6 18 9 19 23 8 14 -11 15 -10 9 6 -7 17 -5
17 10 5 10 -7 15 -10 11 -5 -4 4 -1 14 5 21 9 10 15 10 26 1 11 -8 13 -8 8 1
-9 14 26 36 38 25 5 -4 4 -1 0 7 -6 11 -4 13 9 8 10 -4 15 -3 11 3 -3 6 2 10
12 10 15 0 16 2 3 10 -12 8 -11 10 8 10 28 0 95 44 84 55 -4 5 -1 5 6 1 8 -5
21 0 33 13 11 12 29 21 40 21 11 0 17 5 14 10 -5 9 16 15 38 11 5 -1 6 3 3 8
-6 9 11 20 27 17 5 0 13 7 18 17 6 9 19 17 30 17 11 0 18 4 15 9 -3 5 8 11 25
15 17 3 28 10 24 16 -5 9 -1 11 20 10 12 -1 32 26 27 35 -3 6 1 5 9 -1 11 -9
17 -9 26 1 6 7 10 15 7 18 -3 2 2 7 11 11 9 3 13 2 10 -4 -15 -24 14 -4 75 53
8 8 23 13 32 12 10 -2 17 0 17 3 -3 20 2 25 11 12 7 -11 10 -11 10 -2 0 7 5
10 12 6 6 -4 8 -3 5 3 -8 13 39 46 53 38 5 -3 15 4 23 15 7 11 17 17 21 12 4
-4 18 5 29 20 12 15 29 28 37 30 8 2 22 10 30 18 8 8 22 15 30 15 8 0 14 5 13
12 -2 7 6 10 17 8 13 -2 20 2 20 11 0 8 5 12 10 9 6 -3 10 -1 10 5 0 7 7 10
15 6 8 -3 14 0 12 6 -1 7 7 14 18 16 11 2 25 10 32 19 6 8 15 15 20 16 4 1 7
5 6 9 -2 4 4 5 12 2 8 -4 15 -1 15 7 0 7 3 9 7 6 3 -4 12 2 20 13 8 11 20 17
28 14 8 -4 15 -1 15 6 0 7 7 10 16 6 8 -3 12 -2 9 4 -3 6 -1 10 5 10 6 0 8 5
4 13 -5 8 -2 7 9 -2 15 -12 17 -12 11 3 -4 9 -3 16 2 15 25 -4 45 2 38 13 -5
8 -2 9 9 5 10 -4 16 -2 14 6 -1 7 6 11 16 11 9 -1 17 2 17 7 0 5 8 9 18 9 13
0 14 2 4 9 -10 6 -6 10 15 16 15 5 32 9 36 9 5 1 15 10 23 20 10 14 14 16 14
5 0 -8 6 -3 13 11 7 14 17 25 22 26 19 2 50 18 63 33 8 9 11 10 7 4 -3 -7 -2
-13 4 -13 5 0 13 9 16 21 6 17 9 18 23 7 11 -9 14 -9 8 -1 -4 8 5 18 26 27 30
13 31 14 9 15 -24 1 -24 2 -6 15 18 13 18 14 -3 25 -12 6 -22 18 -22 26 0 8
-5 15 -11 15 -5 0 -8 4 -4 9 3 5 -2 17 -11 25 -8 9 -12 16 -9 16 4 0 -1 8 -12
18 -10 9 -12 13 -4 7 12 -8 12 -7 3 11 -6 12 -8 24 -4 28 3 4 -2 4 -12 0 -14
-5 -17 -3 -14 7 2 7 -5 22 -16 31 -20 18 -20 18 -1 12 15 -4 13 -1 -5 10 -14
8 -19 15 -11 16 9 0 7 6 -8 19 -12 11 -23 29 -24 40 -1 12 -5 21 -9 21 -10 0
-40 59 -34 68 2 4 -2 16 -10 27 -8 10 -14 16 -14 12 0 -5 -6 -2 -14 5 -9 9
-11 17 -4 25 6 8 2 13 -13 18 -17 6 -19 9 -8 16 11 7 11 9 1 9 -8 0 -10 5 -6
13 6 9 5 9 -8 -1 -13 -10 -15 -9 -13 13 2 16 -2 25 -11 25 -8 0 -14 6 -14 14
0 24 -25 63 -38 58 -8 -2 -10 2 -6 13 4 10 2 15 -7 13 -8 -2 -14 5 -14 14 0
10 -7 23 -15 30 -12 11 -12 10 0 -7 13 -18 13 -19 -3 -5 -9 9 -18 27 -19 42
-1 15 -5 26 -8 26 -21 -2 -31 4 -27 16 3 8 -2 20 -11 28 -15 12 -16 11 -3 -4
7 -10 9 -18 3 -18 -5 0 -15 14 -22 30 -7 17 -19 30 -27 30 -8 0 -11 5 -8 10 3
6 1 10 -4 10 -6 0 -11 6 -11 14 0 8 -9 18 -20 21 -11 4 -18 11 -15 16 4 5 -2
9 -12 9 -15 0 -16 2 -3 10 13 8 12 10 -4 10 -11 0 -16 3 -13 7 4 3 -7 15 -24
25 -24 15 -28 22 -19 33 9 11 7 12 -9 8 -13 -3 -21 -1 -21 7 0 15 -27 42 -32
31 -2 -4 -14 3 -28 17 -14 13 -19 21 -11 17 9 -5 12 -4 7 3 -4 7 -14 12 -22
12 -8 0 -14 5 -14 10 0 6 -7 10 -16 10 -8 0 -12 5 -9 10 3 6 1 10 -5 10 -6 0
-8 5 -4 13 5 7 0 6 -11 -3 -11 -9 -16 -10 -11 -2 4 7 1 12 -8 12 -9 0 -16 5
-16 10 0 6 -7 10 -16 10 -8 0 -12 5 -9 10 6 9 -8 14 -27 11 -5 0 -8 9 -8 22 0
16 -3 18 -9 9 -7 -11 -9 -11 -14 2 -4 9 -14 16 -23 16 -11 0 -14 5 -10 16 6
14 4 15 -9 4 -13 -11 -16 -11 -13 1 2 8 -3 13 -9 11 -7 -1 -13 2 -13 8 0 6 -7
10 -16 10 -9 0 -12 5 -8 13 5 8 2 7 -10 -2 -15 -13 -19 -12 -34 4 -13 15 -14
16 -1 7 16 -12 29 -7 29 12 0 6 -4 5 -9 -3 -6 -9 -10 -10 -16 -2 -5 9 -11 9
-23 -1 -12 -10 -14 -10 -8 0 4 7 1 12 -8 12 -9 0 -16 5 -16 11 0 5 -5 7 -12 3
-8 -5 -9 -2 -5 10 6 14 4 15 -14 5 -12 -6 -19 -7 -16 -2 3 4 -1 14 -9 21 -9 8
-14 9 -14 2 0 -6 -5 -8 -12 -4 -7 4 -8 3 -4 -5 4 -6 12 -8 18 -5 7 4 8 2 4 -4
-10 -17 -36 -2 -36 22 0 17 -2 18 -10 6 -5 -8 -10 -10 -10 -4 0 7 -7 15 -16
18 -10 4 -13 2 -8 -7 5 -8 2 -7 -9 2 -14 11 -17 11 -18 0 0 -8 -5 -3 -10 10
-8 20 -11 22 -26 10 -12 -10 -14 -10 -9 -1 5 8 -1 12 -19 12 -17 0 -24 -4 -19
-12 5 -7 3 -8 -6 -3 -10 6 -9 11 5 22 22 15 12 17 -16 3 -12 -7 -19 -7 -19 -1
0 6 -7 7 -17 4 -11 -5 -14 -3 -8 6 5 10 2 11 -14 6 -15 -5 -30 -1 -44 12 -13
10 -17 12 -10 3 10 -13 8 -16 -7 -16 -10 0 -17 3 -14 7 2 4 -3 9 -11 12 -10 4
-12 1 -9 -11 5 -15 4 -15 -8 -1 -7 9 -19 14 -27 11 -9 -3 -11 0 -6 8 6 9 4 11
-4 6 -7 -5 -10 -15 -6 -23 4 -13 3 -14 -10 -3 -8 7 -12 17 -8 24 4 6 -1 5 -10
-3 -10 -7 -17 -9 -17 -3 0 11 -18 11 -38 -1 -7 -5 -19 -2 -28 7 -19 19 -31 21
-15 3z m66 -16 c3 -5 2 -12 -3 -15 -5 -3 -9 1 -9 9 0 17 3 19 12 6z m-265 -11
c0 -5 -5 -10 -11 -10 -5 0 -7 5 -4 10 3 6 8 10 11 10 2 0 4 -4 4 -10z m-547
-175 c-3 -9 -8 -14 -10 -11 -3 3 -2 9 2 15 9 16 15 13 8 -4z m-549 -360 c-4
-8 -11 -15 -16 -15 -6 0 -5 6 2 15 7 8 14 15 16 15 2 0 1 -7 -2 -15z m1141
-106 c-3 -4 2 -9 10 -12 9 -4 12 -1 8 9 -6 16 22 20 32 4 3 -5 12 -10 18 -10
7 0 6 4 -3 10 -13 8 -12 10 3 10 10 0 20 -7 24 -16 5 -15 7 -15 15 0 8 14 12
15 26 4 12 -10 14 -10 8 0 -4 6 -2 12 3 12 6 0 11 -7 11 -15 0 -8 5 -15 11
-15 5 0 7 6 3 13 -4 6 3 3 15 -7 15 -14 20 -15 16 -5 -4 10 2 15 17 16 16 2
19 0 10 -6 -10 -6 -8 -10 7 -14 12 -3 19 -2 17 2 -3 4 4 7 14 7 15 0 17 -3 7
-16 -6 -8 -7 -12 -3 -8 5 4 15 3 23 -4 11 -8 12 -7 7 6 -5 12 -2 15 10 10 9
-3 14 -9 11 -14 -2 -4 7 -12 21 -19 20 -9 24 -9 18 1 -6 9 -3 9 9 -1 9 -7 23
-11 31 -8 16 7 50 -26 39 -38 -5 -4 3 -4 16 0 18 5 22 4 16 -6 -6 -9 -3 -11 9
-6 10 4 15 3 11 -3 -3 -6 1 -10 10 -10 10 0 13 5 9 12 -5 7 -3 8 6 3 10 -6 9
-11 -5 -22 -16 -11 -17 -13 -3 -13 9 0 20 5 23 10 3 6 12 10 18 9 9 0 9 -2 0
-6 -7 -2 -13 -9 -13 -15 0 -6 7 -7 16 -4 11 4 15 2 11 -8 -3 -8 1 -13 11 -13
33 0 42 -3 42 -14 0 -8 -6 -7 -17 2 -16 13 -17 12 -4 -3 7 -10 20 -18 28 -18
8 0 11 -5 7 -12 -4 -7 -3 -8 4 -4 6 4 20 -2 31 -13 11 -11 23 -16 27 -13 5 4
3 0 -4 -9 -11 -14 -9 -16 14 -13 14 1 23 0 20 -3 -3 -4 2 -16 11 -27 l18 -21
-26 20 c-21 17 -21 16 3 -7 15 -15 28 -35 28 -43 0 -8 9 -15 20 -15 11 0 20
-5 20 -11 0 -5 4 -8 9 -5 5 3 12 -5 15 -19 4 -14 13 -25 22 -25 8 0 13 -4 9
-9 -3 -5 -1 -12 5 -16 6 -4 7 -11 4 -17 -5 -8 -1 -9 10 -5 10 4 15 3 11 -3 -3
-6 -1 -10 4 -10 6 0 11 -9 11 -20 0 -11 5 -20 11 -20 5 0 7 6 3 13 -4 6 -3 9
1 4 5 -4 10 -18 12 -30 2 -12 8 -24 13 -25 6 -2 8 -8 4 -13 -3 -5 1 -9 8 -9
15 0 40 -48 32 -61 -3 -5 2 -9 10 -9 10 0 13 -6 9 -17 -5 -12 -3 -14 7 -8 10
6 12 4 7 -8 -3 -9 -3 -16 1 -14 8 2 12 -6 12 -24 0 -8 -5 -7 -15 1 -13 11 -14
10 -9 -6 4 -10 4 -16 -1 -12 -4 4 -14 0 -22 -10 -10 -11 -12 -12 -8 -2 4 8 -1
6 -9 -4 -9 -11 -16 -17 -16 -13 0 8 -22 -8 -47 -35 -9 -9 -22 -14 -29 -11 -8
3 -14 -2 -14 -11 0 -17 -20 -18 -32 -1 -7 8 -12 -15 -10 -36 1 -4 -8 -5 -18
-2 -11 3 -20 0 -20 -5 0 -6 -10 -16 -21 -23 -17 -9 -20 -8 -14 3 4 7 -3 2 -16
-12 -13 -14 -19 -19 -14 -11 6 10 0 8 -16 -4 -15 -11 -25 -23 -23 -27 3 -4 -5
-5 -16 -3 -12 2 -20 -1 -20 -10 0 -8 -5 -17 -12 -21 -7 -5 -8 -2 -3 7 5 8 -3
4 -17 -9 -13 -12 -28 -19 -31 -15 -4 3 -7 -2 -8 -13 0 -10 -3 -13 -6 -7 -3 10
-8 9 -20 -2 -8 -8 -19 -12 -25 -9 -6 4 -8 2 -5 -3 4 -6 -9 -18 -28 -27 -19 -9
-35 -21 -35 -25 0 -5 -11 -7 -24 -6 -19 2 -23 -1 -19 -13 4 -10 2 -13 -5 -8
-7 4 -15 1 -18 -8 -3 -9 -10 -13 -15 -10 -5 3 -9 0 -9 -5 0 -6 -9 -11 -21 -11
-11 0 -18 -3 -16 -7 3 -5 -7 -17 -22 -28 -24 -18 -25 -18 -11 0 14 17 14 18
-8 6 -13 -7 -26 -19 -29 -27 -3 -7 -9 -11 -14 -8 -5 3 -9 0 -9 -6 0 -7 -7 -10
-15 -7 -8 4 -17 1 -21 -5 -5 -7 -2 -8 6 -3 9 5 11 4 6 -3 -4 -7 -15 -12 -24
-12 -10 0 -23 -9 -30 -21 -7 -11 -19 -18 -26 -16 -7 3 -18 -4 -25 -14 -6 -11
-16 -17 -22 -14 -12 8 -41 -14 -33 -26 3 -5 -2 -6 -10 -3 -9 3 -16 1 -16 -6 0
-6 -4 -9 -9 -5 -6 3 -14 -2 -19 -11 -5 -9 -12 -15 -15 -15 -21 3 -27 0 -21
-11 5 -8 2 -9 -9 -5 -10 3 -17 2 -17 -3 0 -6 -7 -10 -16 -10 -10 0 -14 -6 -11
-14 4 -10 0 -14 -14 -11 -12 3 -19 -2 -19 -12 0 -12 -3 -13 -14 -4 -10 9 -17
7 -27 -6 -13 -17 -13 -17 6 -3 19 14 19 14 6 -3 -8 -10 -19 -16 -25 -14 -6 2
-20 -6 -31 -18 -12 -12 -26 -20 -33 -17 -7 2 -12 -1 -12 -7 0 -6 -7 -11 -15
-11 -8 0 -23 -9 -32 -20 -10 -11 -23 -20 -29 -20 -6 0 -17 -7 -24 -15 -7 -8
-16 -12 -21 -9 -5 3 -9 0 -9 -5 0 -6 -8 -11 -17 -11 -16 0 -16 -2 -3 -11 12
-9 11 -10 -5 -6 -22 4 -48 -16 -37 -28 4 -4 -3 -3 -14 3 -25 13 -35 7 -27 -16
4 -10 2 -13 -5 -8 -6 3 -14 1 -17 -5 -4 -5 -14 -8 -22 -5 -8 3 -11 1 -8 -4 3
-6 1 -10 -5 -10 -6 0 -8 -5 -4 -11 4 -7 -2 -6 -17 2 -23 12 -23 11 -9 -6 9
-11 10 -16 3 -11 -8 4 -13 2 -13 -5 0 -6 -8 -9 -20 -6 -11 3 -18 1 -15 -3 7
-11 -30 -32 -39 -23 -3 3 -6 -1 -6 -11 0 -9 -4 -14 -10 -11 -5 3 -18 1 -27 -5
-17 -11 -17 -11 0 -6 27 8 20 -1 -13 -18 -20 -9 -28 -10 -24 -3 3 7 -1 4 -9
-5 -8 -10 -17 -15 -20 -11 -4 3 -9 -2 -13 -11 -3 -9 -12 -16 -20 -16 -8 0 -14
-8 -14 -17 0 -10 -4 -14 -8 -8 -13 18 -35 17 -28 -1 4 -11 2 -15 -7 -11 -7 3
-19 -4 -26 -15 -7 -11 -18 -17 -27 -14 -9 3 -12 1 -9 -4 6 -9 -8 -14 -20 -7
-2 1 -10 -7 -18 -17 -9 -12 -19 -16 -27 -11 -8 5 -11 4 -6 -3 3 -6 2 -13 -4
-17 -5 -3 -10 0 -11 7 0 7 -4 3 -9 -9 -10 -26 -29 -29 -50 -10 -12 10 -12 9
-2 -5 16 -20 2 -31 -16 -12 -7 8 -10 14 -7 14 3 0 1 9 -5 20 -8 15 -8 20 1 20
6 0 1 9 -12 21 -13 11 -17 18 -9 14 8 -4 6 1 -4 9 -12 9 -14 16 -7 16 9 0 8 4
-2 15 -9 8 -13 24 -10 35 3 13 0 20 -8 20 -11 0 -11 2 1 10 13 8 13 10 -2 10
-12 0 -15 5 -11 17 5 12 3 14 -8 8 -11 -7 -11 -5 1 10 9 11 10 16 3 11 -15 -8
-14 -9 -16 57 0 26 -5 47 -10 47 -5 0 -7 12 -4 26 2 14 -2 31 -10 40 -10 10
-11 14 -2 14 7 0 9 3 6 7 -4 3 -2 12 5 20 9 11 7 12 -7 7 -15 -6 -16 -4 -6 14
9 17 8 23 -6 31 -11 6 -13 11 -5 11 7 0 10 5 7 11 -11 16 -13 59 -4 65 5 2 5
15 1 27 -4 12 -7 33 -6 47 5 59 5 77 1 103 -3 22 -1 27 11 22 12 -4 12 -3 3 9
-9 10 -9 16 -1 21 8 5 8 11 -1 21 -9 11 -9 14 1 14 7 0 10 7 6 16 -4 9 -2 22
3 28 15 19 25 59 12 52 -7 -5 -9 -1 -5 8 3 9 11 13 18 9 7 -4 7 -2 -1 7 -9 10
-8 16 3 27 12 12 12 18 2 31 -7 9 -8 13 -3 10 6 -4 17 3 25 15 12 20 12 21 -4
8 -14 -12 -16 -12 -10 3 3 9 11 16 18 16 6 0 4 5 -4 10 -11 7 -11 10 -2 10 7
0 10 5 7 10 -3 6 -1 10 6 10 7 0 9 3 6 7 -4 3 1 15 10 26 10 11 12 17 6 13 -7
-4 -13 -2 -13 4 0 6 6 13 14 16 8 3 12 12 10 19 -3 7 5 20 18 29 15 10 17 16
8 16 -13 0 -13 2 0 10 8 5 11 10 6 10 -5 0 -3 6 3 13 6 8 7 18 3 22 -4 5 -2 5
4 2 7 -4 18 1 25 10 8 10 9 14 2 10 -6 -4 -15 -2 -19 4 -4 8 -3 9 4 5 7 -4 12
-2 12 4 0 6 5 8 10 5 6 -3 10 3 10 13 0 11 10 27 23 36 12 9 15 14 7 11 -8 -3
-5 2 8 11 12 9 22 22 22 30 0 7 10 20 22 28 12 9 18 16 13 16 -6 0 13 21 40
47 28 25 49 51 47 56 -2 5 4 7 13 3 11 -4 15 -2 13 6 -6 17 39 51 53 42 7 -4
9 -3 6 3 -7 11 28 45 37 36 3 -4 6 -1 6 6 0 7 5 9 12 5 7 -4 8 -3 4 4 -4 7 -2
12 4 12 6 0 8 5 4 13 -6 9 -5 9 8 -1 13 -10 18 -9 29 5 13 16 12 17 -3 4 -10
-7 -18 -10 -18 -5 1 5 17 19 37 32 26 17 33 19 22 6 -13 -16 -12 -16 8 -4 12
8 20 16 18 20 -1 3 3 11 11 18 8 7 14 9 14 4 0 -5 7 -9 15 -9 11 0 12 4 3 14
-6 7 -8 16 -4 20 3 3 6 2 6 -4 0 -5 7 -10 14 -10 8 0 14 5 13 11 -2 9 2 11 34
15 5 0 8 5 5 9 -2 4 5 14 17 22 19 11 20 11 10 -1 -10 -12 -8 -15 6 -15 10 0
17 6 14 12 -2 7 1 15 8 20 7 4 10 3 6 -2 -3 -5 3 -10 13 -10 14 0 16 3 8 13
-6 7 -8 13 -5 13 3 0 14 3 24 6 15 5 15 4 3 -5 -9 -7 -10 -11 -3 -11 6 0 15 5
18 11 4 6 13 8 21 5 8 -3 13 0 11 7 -1 7 4 11 11 10 6 -2 12 0 12 5 0 4 14 8
31 8 18 1 36 9 41 18 7 13 13 14 23 6 10 -8 15 -8 21 1 5 8 3 9 -6 4 -8 -5
-11 -4 -6 3 4 7 17 8 39 1 43 -12 46 -11 17 7 -14 8 -18 13 -9 10 9 -2 22 1
29 7 9 9 11 9 7 1 -4 -7 0 -15 9 -18 8 -3 13 -2 10 3 -3 5 5 11 19 13 13 3 22
2 20 -3 -3 -4 4 -5 15 -2 11 3 20 9 20 12 0 4 7 8 15 8 8 0 12 -4 10 -8z
m1564 -243 c-3 -3 -11 5 -18 17 -13 21 -12 21 5 5 10 -10 16 -20 13 -22z
m-479 -1122 c0 -8 -19 -13 -24 -6 -3 5 1 9 9 9 8 0 15 -2 15 -3z m-2300 -148
c0 -3 -4 -8 -10 -11 -5 -3 -10 -1 -10 4 0 6 5 11 10 11 6 0 10 -2 10 -4z m460
-2210 c0 -2 -7 -7 -16 -10 -8 -3 -12 -2 -9 4 6 10 25 14 25 6z m604 -328 c-3
-4 -11 -5 -19 -1 -21 7 -19 12 4 10 11 0 18 -5 15 -9z m653 -60 c-3 -8 -6 -5
-6 6 -1 11 2 17 5 13 3 -3 4 -12 1 -19z"/>
<path d="M4019 7163 c-13 -16 -12 -17 4 -4 9 7 17 15 17 17 0 8 -8 3 -21 -13z"/>
<path d="M4376 8088 c3 -5 10 -6 15 -3 13 9 11 12 -6 12 -8 0 -12 -4 -9 -9z"/>
<path d="M7080 5569 c0 -5 5 -7 10 -4 6 3 10 8 10 11 0 2 -4 4 -10 4 -5 0 -10
-5 -10 -11z"/>
<path d="M10427 5238 c2 -5 0 -8 -6 -8 -6 0 -8 -7 -5 -15 5 -11 2 -13 -12 -8
-13 5 -16 3 -11 -10 4 -12 1 -15 -14 -12 -16 3 -19 0 -15 -12 4 -11 2 -14 -9
-9 -8 3 -15 1 -15 -4 0 -5 -7 -7 -15 -4 -10 4 -13 0 -10 -15 3 -15 0 -18 -12
-14 -10 4 -14 2 -10 -4 3 -5 1 -10 -6 -10 -20 0 -97 -55 -91 -64 3 -5 -7 -14
-21 -19 -16 -6 -23 -14 -19 -22 4 -7 3 -8 -4 -4 -15 9 -52 -11 -51 -27 0 -9 2
-9 6 1 2 6 9 12 15 12 6 0 6 -6 -2 -15 -7 -8 -17 -12 -24 -8 -20 13 -35 11
-29 -3 3 -8 10 -11 16 -7 6 3 7 1 3 -6 -4 -6 -11 -9 -16 -6 -5 3 -14 -4 -20
-15 -6 -11 -14 -19 -18 -19 -4 1 -16 1 -27 0 -15 -1 -17 -3 -6 -10 16 -10 4
-18 -27 -15 -19 1 -20 -1 -10 -14 10 -13 10 -14 1 -8 -8 4 -13 2 -13 -5 0 -7
-8 -9 -21 -6 -17 5 -18 3 -7 -11 11 -14 10 -15 -6 -9 -15 6 -17 3 -13 -12 4
-16 0 -18 -24 -17 -18 1 -29 -3 -29 -11 0 -7 -5 -13 -11 -13 -5 0 -8 -4 -5 -9
3 -5 -1 -12 -10 -15 -8 -3 -13 -2 -10 2 3 5 -2 9 -10 9 -8 0 -13 -6 -10 -13 7
-17 -11 -28 -18 -12 -3 7 -4 1 -2 -15 3 -27 2 -27 -19 -13 -22 14 -23 14 -18
-7 3 -16 2 -18 -5 -9 -7 11 -10 10 -16 -3 -3 -9 -3 -22 1 -27 3 -7 1 -8 -5 -4
-7 4 -20 9 -30 11 -15 2 -18 -2 -16 -21 2 -21 0 -23 -19 -12 -21 11 -21 10 -7
-7 9 -11 10 -16 3 -11 -8 4 -13 2 -13 -6 0 -11 -2 -10 -9 0 -6 11 -10 10 -16
-5 -5 -10 -7 -22 -6 -27 1 -5 -4 -4 -12 3 -12 9 -19 6 -37 -16 -12 -15 -19
-22 -15 -15 3 6 2 12 -3 12 -6 0 -13 -7 -16 -16 -9 -22 -8 -26 6 -18 6 4 8 3
4 -4 -4 -7 -17 -8 -36 -2 -29 8 -29 8 -18 -13 10 -20 10 -21 -6 -8 -9 8 -16
10 -15 5 3 -18 -1 -37 -8 -31 -3 4 -13 1 -21 -6 -11 -8 -14 -8 -9 0 4 6 3 15
-3 18 -6 4 -9 1 -8 -7 2 -7 -2 -12 -8 -11 -6 1 -10 -9 -9 -22 3 -21 1 -23 -21
-15 -19 8 -26 6 -30 -5 -4 -8 -10 -13 -14 -10 -5 3 -11 1 -14 -4 -4 -5 -1 -13
5 -17 8 -5 9 -3 4 6 -5 9 -4 11 4 6 16 -11 3 -26 -16 -19 -12 5 -14 3 -9 -8 4
-8 0 -5 -8 5 -16 20 -16 20 -17 0 -1 -10 -1 -23 0 -28 1 -5 -5 -3 -14 4 -13
11 -14 10 -8 -6 6 -17 5 -17 -10 -5 -14 11 -18 11 -23 -3 -3 -9 -11 -13 -17
-9 -6 4 -8 0 -4 -11 5 -11 3 -15 -5 -10 -8 5 -9 1 -4 -12 6 -15 5 -16 -5 -7
-10 10 -15 9 -26 -5 -8 -9 -12 -12 -9 -6 3 7 -1 14 -9 17 -10 4 -12 1 -8 -10
4 -11 3 -14 -6 -9 -7 5 -10 2 -9 -6 2 -8 -8 -14 -24 -16 -16 -2 -28 -9 -28
-18 0 -8 -5 -14 -11 -14 -5 0 -8 -3 -5 -8 2 -4 -6 -12 -19 -18 -20 -10 -22 -9
-18 10 4 20 3 19 -9 -2 -8 -12 -18 -19 -23 -15 -4 4 -5 0 -2 -9 6 -16 -3 -23
-25 -19 -5 0 -8 -4 -8 -11 0 -6 -10 -3 -22 8 -19 15 -20 16 -9 2 10 -13 10
-18 2 -18 -7 0 -9 -4 -6 -10 3 -6 -1 -7 -9 -4 -11 4 -19 -2 -25 -17 -5 -13
-10 -18 -10 -10 -1 10 -4 11 -14 2 -8 -6 -17 -8 -20 -4 -4 3 -7 1 -7 -5 0 -7
-5 -11 -12 -10 -7 2 -13 -3 -14 -9 -3 -26 -5 -28 -12 -15 -6 9 -16 5 -39 -17
-17 -16 -28 -33 -25 -37 4 -4 1 -4 -6 0 -7 4 -9 13 -6 19 4 7 -6 1 -22 -13
-16 -14 -23 -18 -16 -10 6 8 12 19 12 25 0 5 -9 -3 -19 -19 -11 -17 -17 -35
-13 -40 3 -6 -5 -4 -19 6 -20 13 -26 13 -26 3 0 -8 5 -11 10 -8 6 3 7 1 3 -5
-4 -6 -14 -8 -23 -5 -11 4 -14 3 -9 -5 4 -7 2 -12 -4 -12 -6 0 -8 -5 -4 -12 4
-7 3 -8 -5 -4 -6 4 -9 12 -6 17 4 5 1 9 -6 9 -7 0 -9 -8 -6 -21 5 -17 3 -18
-10 -8 -12 10 -16 10 -23 0 -5 -8 -13 -10 -21 -5 -12 6 -12 5 -1 -8 11 -14 10
-16 -12 -14 -15 2 -26 0 -26 -5 0 -5 -8 -5 -17 -2 -12 5 -15 2 -10 -10 4 -11
1 -15 -13 -12 -13 3 -17 -1 -13 -11 4 -10 0 -12 -13 -7 -12 4 -15 3 -10 -5 4
-7 2 -12 -3 -12 -6 0 -11 6 -11 13 -1 6 -7 1 -16 -13 l-15 -25 7 24 6 24 -22
-21 c-14 -13 -19 -25 -14 -34 5 -9 2 -8 -11 2 -17 14 -18 13 -11 -4 7 -20 7
-20 -15 0 -12 10 -19 13 -15 6 4 -7 2 -20 -5 -28 -12 -14 -14 -14 -25 0 -11
15 -12 15 -18 1 -4 -11 -2 -14 6 -9 7 5 8 3 4 -5 -5 -7 -15 -10 -23 -7 -11 5
-13 2 -9 -9 3 -10 2 -13 -5 -10 -5 4 -16 1 -24 -5 -8 -7 -15 -9 -15 -5 0 4 8
14 18 22 15 12 14 12 -10 2 -15 -7 -25 -17 -21 -22 4 -7 -1 -8 -12 -3 -14 5
-16 4 -6 -7 9 -12 4 -14 -29 -11 -30 2 -40 -1 -40 -12 0 -8 -7 -17 -15 -20 -8
-4 -13 -9 -10 -13 2 -4 -2 -8 -10 -8 -8 0 -12 3 -10 7 2 3 -4 6 -14 7 -10 1
-23 -9 -29 -22 -8 -18 -16 -22 -33 -18 -17 5 -21 3 -16 -9 4 -12 1 -14 -14
-11 -10 3 -16 9 -13 14 3 5 0 9 -7 9 -6 0 -9 -8 -7 -18 4 -15 1 -18 -21 -15
-18 3 -22 2 -13 -5 11 -7 10 -10 -3 -16 -24 -9 -27 -8 -20 7 4 6 -1 3 -9 -7
-14 -18 -21 -15 -17 7 1 4 -8 2 -18 -5 -11 -7 -17 -16 -14 -22 4 -5 -1 -7 -10
-3 -10 4 -16 2 -14 -6 1 -7 -6 -11 -15 -11 -10 1 -18 -2 -18 -7 0 -5 -5 -9
-11 -9 -5 0 -8 4 -5 8 3 5 -1 9 -9 9 -8 0 -11 -5 -8 -10 4 -7 -1 -8 -12 -3
-14 5 -15 4 -7 -7 8 -10 7 -13 -8 -14 -14 -1 -17 3 -13 15 3 10 -1 8 -11 -6
-10 -13 -22 -19 -29 -15 -7 4 -6 -1 2 -11 12 -15 12 -17 0 -14 -8 2 -17 8 -21
13 -5 6 -8 4 -8 -4 0 -11 -4 -9 -15 5 -14 18 -15 17 -5 -8 7 -22 6 -26 -5 -21
-8 3 -12 10 -8 17 4 6 -1 5 -10 -2 -9 -8 -22 -10 -29 -6 -11 6 -11 5 0 -8 10
-12 9 -18 -3 -28 -13 -11 -14 -10 -10 2 4 9 0 15 -9 15 -8 0 -13 -4 -10 -9 3
-4 1 -8 -5 -8 -5 0 -12 4 -16 9 -7 13 -65 -20 -65 -37 0 -7 -4 -10 -10 -7 -5
3 -10 3 -10 -2 0 -4 -17 -9 -37 -9 -32 -1 -62 -6 -83 -14 -3 -1 -9 -2 -13 -1
-5 1 -6 -3 -2 -9 5 -8 11 -8 20 0 9 8 14 7 18 -3 4 -11 -2 -13 -25 -11 -16 2
-35 7 -41 11 -8 5 -8 2 0 -8 11 -13 9 -15 -7 -14 -11 1 -23 5 -27 10 -5 4 -2
5 6 0 10 -5 12 -4 7 4 -4 6 -12 9 -17 5 -5 -3 -7 -10 -4 -15 4 -5 -6 -14 -20
-19 -34 -13 -38 -13 -29 3 5 8 3 8 -9 -2 -9 -7 -15 -16 -13 -20 7 -11 -38 -8
-46 3 -9 13 -40 -13 -31 -27 3 -6 1 -7 -5 -3 -6 4 -9 14 -6 24 5 15 5 15 -6
-1 -6 -9 -8 -23 -4 -30 4 -6 4 -9 -1 -5 -4 4 -17 2 -29 -4 l-21 -11 20 23 20
24 -30 -20 c-16 -11 -41 -21 -55 -22 -13 0 -30 -9 -37 -18 -12 -17 -13 -17
-13 -1 0 9 5 17 11 17 5 0 7 5 3 11 -5 8 -10 7 -16 -4 -5 -10 -16 -14 -26 -11
-14 5 -15 4 -2 -5 13 -9 13 -12 1 -23 -10 -10 -12 -10 -7 0 4 6 3 12 -3 12 -5
0 -12 -6 -14 -12 -4 -10 -6 -9 -6 1 -1 11 -4 11 -18 0 -14 -12 -16 -12 -9 1 4
8 -1 6 -11 -5 -10 -11 -17 -18 -16 -16 2 2 -2 10 -9 18 -9 12 -15 10 -32 -9
-12 -13 -17 -18 -12 -11 5 8 4 13 -2 13 -6 0 -14 -4 -17 -10 -3 -6 -11 -10
-16 -10 -6 0 -7 5 -3 12 4 7 3 8 -5 4 -9 -6 -9 -11 1 -24 11 -13 11 -14 0 -8
-7 4 -20 2 -29 -6 -12 -9 -15 -9 -9 0 4 7 1 12 -9 12 -10 0 -13 -5 -9 -12 4
-6 3 -8 -4 -4 -6 3 -24 8 -41 10 -23 2 -31 -1 -31 -13 0 -14 -2 -14 -11 -1 -8
11 -12 12 -16 3 -2 -7 -14 -13 -24 -13 -11 0 -17 -5 -14 -10 3 -5 1 -10 -4
-10 -6 0 -11 5 -11 11 0 5 -5 7 -10 4 -6 -4 -7 -12 -3 -18 3 -7 -4 -3 -16 7
-19 17 -21 17 -15 3 5 -13 2 -16 -10 -11 -10 4 -16 1 -16 -7 0 -8 -5 -6 -13 6
-11 14 -16 15 -22 5 -6 -9 -4 -11 6 -5 12 7 12 5 1 -6 -11 -12 -14 -12 -22 1
-9 13 -10 13 -10 0 0 -12 -2 -12 -9 -1 -6 10 -10 10 -16 1 -5 -8 -13 -6 -27 7
-21 18 -21 18 -8 -7 7 -14 9 -22 5 -18 -4 4 -17 2 -28 -4 -17 -9 -19 -8 -14 6
3 8 2 18 -4 21 -5 4 -8 1 -7 -7 2 -7 -3 -12 -11 -10 -12 3 -12 1 0 -14 13 -16
12 -17 -6 -7 -15 9 -22 8 -31 -4 -9 -13 -13 -13 -19 -3 -6 9 -4 11 5 5 9 -5
11 -4 6 3 -4 7 -15 8 -29 4 -12 -5 -29 -8 -37 -7 -8 1 -21 -3 -27 -8 -9 -6
-13 -5 -13 4 0 11 -2 11 -10 -1 -5 -8 -10 -10 -10 -5 0 6 -13 11 -30 10 -16 0
-30 -5 -30 -12 0 -6 -4 -14 -9 -18 -6 -3 -8 4 -6 16 3 16 1 18 -9 10 -7 -6
-16 -8 -20 -4 -4 4 -4 -1 0 -11 6 -15 4 -17 -7 -10 -8 4 -23 9 -34 11 -18 2
-18 1 3 -9 12 -6 22 -15 22 -21 0 -5 -7 -4 -15 3 -8 7 -15 9 -15 5 0 -4 -6 -2
-14 4 -11 10 -17 8 -25 -6 -6 -10 -11 -12 -11 -5 0 6 -5 12 -11 12 -5 0 -7 -6
-3 -12 5 -9 2 -9 -9 1 -11 9 -17 10 -17 2 0 -6 -5 -11 -11 -11 -5 0 -7 6 -3
13 5 8 2 8 -9 -2 -14 -11 -17 -11 -17 0 0 12 -2 12 -9 1 -4 -8 -22 -15 -39
-16 -25 -2 -29 1 -20 11 8 11 7 12 -6 7 -9 -3 -16 -11 -16 -16 0 -6 -8 -4 -17
3 -9 8 -14 9 -11 4 9 -15 -38 -11 -57 5 -8 7 -18 10 -22 6 -3 -3 -1 -6 5 -6 7
0 12 -3 12 -7 0 -5 -14 -8 -30 -8 -19 0 -29 4 -26 12 3 7 -1 10 -9 6 -8 -3
-13 -8 -11 -12 2 -3 -11 -6 -30 -6 -21 0 -34 5 -34 13 0 7 -5 10 -10 7 -6 -4
-8 -10 -6 -13 8 -14 -142 -6 -159 8 -8 7 -18 10 -22 6 -3 -3 -1 -6 5 -6 7 0
12 -3 12 -7 0 -5 -14 -8 -30 -8 -19 0 -29 4 -26 12 3 7 -1 10 -9 6 -8 -3 -13
-8 -11 -12 3 -4 -7 -6 -21 -5 -13 0 -29 7 -34 15 -7 12 -9 12 -9 -1 0 -16 -54
-20 -68 -5 -4 5 -1 5 7 0 10 -6 12 -4 6 5 -7 11 -10 10 -19 -1 -14 -18 -88
-19 -82 -2 3 7 -1 10 -9 6 -8 -3 -13 -9 -10 -13 6 -10 -15 -8 -32 3 -8 5 -13
3 -13 -4 0 -7 -8 -6 -24 4 -27 18 -47 17 -70 -2 -14 -12 -16 -11 -9 4 5 15 3
17 -13 11 -27 -11 -75 -15 -69 -6 3 4 -2 11 -11 14 -23 9 -31 7 -16 -3 11 -7
11 -9 0 -13 -8 -3 -23 1 -33 9 -17 13 -17 15 -3 10 10 -4 18 -3 18 2 0 13 -39
20 -47 9 -3 -6 -2 -8 3 -5 5 3 10 -3 10 -14 0 -18 -2 -18 -12 -5 -6 9 -14 12
-19 8 -4 -4 -5 4 -1 18 3 14 3 19 0 13 -3 -7 -12 -13 -20 -13 -9 0 -12 -5 -9
-12 4 -7 -3 -2 -15 12 -15 17 -20 20 -16 7 5 -15 2 -16 -14 -7 -13 7 -21 7
-25 0 -5 -8 -11 -7 -21 1 -8 6 -14 8 -14 4 0 -4 -8 -1 -17 6 -9 8 -14 9 -10 3
8 -13 -11 -23 -31 -17 -6 3 -9 10 -5 16 4 7 -2 5 -12 -3 -11 -9 -16 -10 -11
-2 9 16 -6 16 -23 0 -8 -7 -11 -8 -8 -2 4 6 -5 16 -20 23 -23 10 -25 10 -14
-3 9 -11 9 -16 0 -22 -7 -4 -10 -3 -7 2 3 5 0 15 -8 21 -8 8 -15 9 -19 3 -3
-6 -11 -10 -18 -10 -8 0 -8 3 1 12 7 7 12 17 12 22 0 6 -5 4 -10 -4 -5 -8 -10
-10 -10 -4 0 6 -7 11 -15 11 -11 0 -12 -4 -3 -14 8 -11 7 -12 -6 -7 -9 3 -16
11 -16 16 0 6 -6 6 -14 -1 -11 -10 -17 -8 -26 6 -10 16 -11 15 -6 -7 5 -23 4
-23 -8 -7 -11 14 -15 15 -19 5 -4 -10 -6 -10 -6 0 -1 6 -8 12 -17 12 -9 0 -12
5 -8 12 4 7 3 8 -5 4 -6 -4 -9 -11 -6 -16 3 -5 0 -12 -6 -16 -8 -5 -9 -3 -4 6
6 10 4 12 -8 7 -9 -3 -19 -2 -22 3 -3 5 -14 7 -25 5 -12 -2 -18 0 -15 6 4 5
-1 9 -9 9 -10 0 -13 6 -9 18 5 14 3 14 -11 -3 l-18 -20 6 20 c6 20 6 20 -9 1
-15 -20 -15 -20 -15 0 0 16 -2 17 -10 4 -7 -11 -10 -12 -10 -2 0 10 -4 10 -16
-2 -20 -21 -30 -21 -13 0 12 15 11 16 -10 9 -18 -5 -22 -4 -15 6 6 12 5 12 -9
0 -14 -11 -17 -11 -18 0 -1 8 -1 18 0 22 1 5 -3 6 -9 2 -6 -3 -8 -12 -4 -18 3
-7 -1 -5 -8 5 -10 12 -19 14 -31 7 -13 -8 -19 -6 -23 5 -7 19 -30 21 -37 4 -4
-10 -6 -10 -6 -1 -1 7 -8 10 -18 6 -12 -5 -14 -3 -8 8 8 12 6 12 -8 0 -13 -10
-17 -10 -17 -1 0 9 -4 9 -17 -1 -11 -10 -14 -10 -9 -1 7 11 -19 18 -48 13 -5
-1 -4 4 3 13 9 11 9 16 0 22 -7 4 -10 3 -7 -2 3 -5 -1 -15 -9 -23 -13 -12 -14
-11 -9 6 4 13 2 20 -8 20 -9 0 -13 -4 -10 -8 4 -7 -46 -6 -53 1 -2 1 -13 3
-25 4 -13 1 -22 7 -20 14 1 7 -2 13 -8 13 -5 1 -16 2 -22 3 -7 1 -19 -2 -26
-8 -9 -7 -12 -5 -10 5 2 9 -6 14 -24 13 -19 0 -28 5 -29 15 0 12 -2 12 -6 3
-4 -10 -8 -8 -18 5 -9 12 -27 18 -55 19 -25 0 -45 6 -51 15 -7 11 -9 10 -9 -6
-1 -18 -2 -17 -11 4 -6 15 -15 21 -24 17 -18 -7 -20 10 -2 18 6 2 -6 2 -27 -1
-33 -4 -43 -1 -58 19 -18 22 -19 22 -9 1 8 -15 8 -24 1 -28 -6 -4 -10 -3 -9 2
3 13 -12 43 -22 43 -4 0 -6 -8 -3 -17 5 -17 5 -17 -6 0 -6 9 -9 21 -6 25 2 4
-4 8 -14 8 -15 0 -17 -3 -7 -15 10 -12 9 -13 -3 -6 -8 4 -24 15 -34 24 -11 9
-16 11 -13 4 4 -6 3 -14 -3 -18 -5 -3 -10 -1 -10 5 0 6 -5 8 -12 4 -10 -6 -10
-5 0 8 10 13 9 18 -5 29 -9 8 -14 9 -10 3 4 -7 0 -14 -8 -18 -8 -3 -17 -1 -21
5 -3 5 -14 7 -25 4 -11 -4 -19 -2 -19 5 0 6 4 9 9 5 5 -3 13 -1 16 5 4 6 3 10
-2 9 -4 -1 -10 0 -13 1 -3 1 -18 4 -35 6 -16 3 -33 10 -37 16 -11 19 -40 19
-33 0 5 -14 4 -14 -13 1 -10 9 -23 14 -27 10 -5 -5 -3 1 5 11 14 18 14 19 -8
7 -22 -12 -24 -11 -18 11 3 12 3 17 0 10 -5 -10 -9 -10 -22 0 -13 11 -14 11
-7 -2 4 -8 5 -12 0 -8 -4 4 -17 3 -29 -3 -19 -9 -19 -9 -3 4 23 19 22 30 -3
17 -19 -10 -25 -2 -22 31 1 3 -9 5 -21 4 -12 -1 -26 0 -32 4 -19 10 -35 9 -29
-2 3 -7 -1 -4 -9 5 -8 10 -17 14 -22 10 -4 -4 -4 4 0 18 7 24 6 24 -7 6 -12
-15 -17 -16 -23 -6 -6 9 -4 11 5 5 9 -6 11 -4 5 4 -5 9 -10 10 -18 2 -15 -15
-30 -14 -24 2 4 10 -5 12 -32 10 -24 -1 -31 1 -22 6 8 5 21 7 30 4 14 -4 14
-3 1 5 -8 6 -18 8 -22 6 -4 -3 -8 -1 -8 4 0 6 -7 13 -16 16 -14 6 -15 4 -4 -9
11 -13 11 -16 -1 -13 -7 2 -19 8 -27 15 -7 7 -18 11 -25 9 -7 -1 -9 -1 -4 1 4
3 7 9 7 14 0 6 -4 7 -10 4 -5 -3 -10 -2 -10 3 0 6 -7 13 -16 16 -15 6 -15 4
-3 -10 13 -16 12 -16 -18 0 -18 9 -36 17 -40 17 -5 1 -7 5 -5 10 1 6 -3 9 -10
7 -7 -1 -22 3 -33 9 -11 5 -30 9 -42 8 -12 -1 -20 2 -17 7 4 5 12 7 18 5 7 -3
13 1 13 9 0 7 -4 11 -9 8 -5 -3 -20 2 -35 11 -14 9 -22 12 -19 6 4 -6 3 -11
-2 -11 -11 0 -26 30 -23 43 1 5 -3 6 -9 2 -8 -5 -7 -12 2 -23 10 -12 7 -12
-14 2 -25 17 -42 36 -18 21 6 -3 7 1 4 10 -6 14 -8 14 -21 -2 -8 -10 -12 -13
-9 -6 4 6 -7 16 -24 22 -17 5 -30 13 -30 16 0 3 5 3 12 -1 7 -5 8 -3 3 5 -5 9
-10 10 -18 2 -8 -8 -16 -6 -29 6 -13 12 -18 13 -18 3 0 -7 -3 -10 -6 -7 -4 4
-1 13 5 21 10 12 9 14 -8 9 -12 -3 -21 -1 -21 6 0 6 -13 11 -30 11 -16 0 -30
5 -30 11 0 5 5 7 12 3 6 -4 3 4 -7 18 -14 18 -22 22 -31 14 -7 -6 -9 -15 -6
-20 3 -5 0 -6 -6 -2 -6 4 -8 14 -5 22 5 14 3 15 -18 4 -22 -12 -23 -12 -10 4
12 14 12 16 -4 10 -14 -6 -16 -3 -10 17 5 19 4 21 -5 9 -9 -11 -13 -12 -17 -2
-2 6 -9 9 -14 6 -6 -3 -17 0 -26 8 -9 7 -14 8 -10 2 3 -6 0 -11 -8 -11 -10 0
-11 5 -5 18 8 14 6 16 -10 12 -16 -4 -20 0 -21 18 -1 18 -2 20 -6 6 -5 -18 -5
-18 -20 0 -14 17 -14 17 -9 -1 6 -16 4 -17 -9 -6 -8 7 -13 15 -11 19 2 3 0 15
-5 26 -6 16 -8 17 -8 3 -1 -12 -8 -16 -22 -13 -12 3 -24 7 -28 11 -3 4 2 4 12
1 11 -4 16 -3 12 3 -3 6 -15 10 -26 10 -10 0 -19 5 -19 11 0 5 6 7 12 3 9 -5
9 -3 -1 9 -12 15 -31 15 -31 1 0 -3 5 -2 12 2 7 5 8 3 3 -6 -6 -10 -11 -10
-20 3 -7 10 -17 17 -24 17 -10 0 -15 12 -13 31 1 3 -6 6 -13 6 -11 0 -12 -4
-3 -14 8 -11 7 -12 -6 -7 -9 3 -16 10 -16 16 0 5 -4 7 -9 3 -5 -3 -16 4 -24
15 -7 11 -17 17 -20 13 -4 -3 -7 -1 -7 5 0 6 -10 12 -22 14 -17 2 -22 9 -20
22 3 17 1 18 -11 7 -11 -8 -17 -9 -22 -1 -3 6 -11 8 -16 5 -5 -3 -6 1 -3 10 5
11 2 14 -9 9 -13 -5 -15 0 -11 23 5 26 4 27 -9 9 -11 -15 -16 -16 -22 -6 -6 9
-4 11 5 5 8 -5 11 -4 7 3 -4 5 -16 8 -26 5 -10 -3 -22 0 -25 6 -5 7 0 9 11 5
10 -3 7 1 -7 9 -13 8 -32 13 -42 12 -10 -2 -16 0 -13 4 8 14 -34 61 -50 54 -8
-3 -12 -10 -8 -16 3 -5 1 -7 -5 -3 -6 3 -8 19 -6 34 4 22 3 25 -7 15 -16 -16
-33 -17 -23 -1 5 7 2 9 -9 5 -12 -4 -14 -2 -10 11 6 14 4 15 -9 4 -13 -11 -16
-10 -14 5 1 12 -6 18 -21 18 -12 0 -26 5 -30 9 -5 5 -1 6 7 2 9 -5 8 -2 -2 7
-10 8 -15 17 -11 21 4 4 -1 4 -11 0 -14 -5 -17 -4 -12 4 4 7 3 12 -3 12 -5 0
-12 -6 -14 -12 -3 -7 -6 -2 -7 12 -1 25 -1 25 -16 5 -14 -19 -15 -18 -9 15 3
19 2 30 -3 23 -6 -10 -14 -9 -34 1 -15 8 -29 12 -32 8 -3 -3 -6 0 -6 6 0 7 6
12 13 12 8 0 7 3 -3 10 -9 6 -17 5 -22 -3 -6 -9 -8 -8 -9 3 -1 8 -1 19 1 25 1
5 -9 1 -22 -10 -20 -18 -21 -18 -8 -1 13 16 12 20 -3 31 -9 6 -15 14 -12 17 3
2 -2 5 -12 5 -13 0 -11 -4 7 -19 12 -10 18 -18 14 -18 -12 0 -69 50 -58 50 5
0 0 7 -10 15 -16 12 -22 12 -35 2 -12 -9 -13 -9 -7 1 4 6 2 12 -3 12 -6 0 -11
5 -11 11 0 5 6 7 13 3 8 -6 8 -3 -2 9 -11 13 -17 14 -35 5 -19 -10 -20 -10 -8
5 12 14 11 16 -7 12 -12 -2 -20 1 -18 8 1 7 -9 12 -26 11 -15 -1 -25 1 -23 4
9 8 -14 43 -25 37 -5 -4 -9 -2 -9 4 0 5 6 12 13 15 8 4 7 5 -3 4 -27 -2 -50
14 -50 36 0 16 -2 18 -9 7 -8 -12 -11 -12 -25 1 -8 9 -12 19 -8 24 4 5 -1 3
-10 -4 -14 -11 -16 -11 -11 6 3 12 -1 19 -11 19 -8 0 -13 -4 -10 -9 3 -4 0 -8
-5 -8 -6 0 -11 5 -11 11 0 5 -4 8 -9 4 -6 -3 -8 4 -6 15 2 12 0 18 -6 14 -12
-7 -41 15 -33 27 3 5 -2 6 -10 3 -14 -5 -20 4 -18 27 1 3 -5 6 -13 6 -8 0 -11
-5 -8 -10 4 -6 1 -7 -8 -1 -8 5 -18 9 -24 9 -5 0 -9 9 -7 19 3 13 -1 17 -12
13 -8 -3 -22 1 -31 9 -8 9 -15 14 -16 12 -7 -26 -2 -51 12 -67 10 -10 15 -22
12 -25 -4 -3 2 -6 13 -7 10 0 13 -3 6 -6 -8 -3 -5 -11 10 -25 13 -11 17 -16
10 -13 -11 6 -11 3 -1 -13 10 -16 16 -18 26 -10 16 13 17 -4 2 -19 -8 -8 -8
-13 0 -17 6 -4 11 -4 11 0 0 4 11 -3 24 -15 15 -14 22 -29 19 -39 -5 -11 -2
-14 10 -9 9 3 19 1 23 -5 4 -7 3 -8 -4 -4 -7 4 -12 2 -12 -3 0 -6 5 -11 11
-11 6 0 8 -7 5 -16 -4 -10 -2 -13 6 -8 8 5 9 2 4 -11 -6 -16 -4 -16 11 -4 11
9 14 10 9 2 -4 -8 -2 -13 4 -13 6 0 8 -4 5 -10 -3 -6 -1 -10 5 -10 6 0 8 -5 4
-12 -5 -9 -2 -8 9 1 15 12 17 12 11 -4 -6 -14 -4 -16 6 -10 10 6 12 4 7 -9 -5
-13 -3 -17 7 -13 8 3 17 -1 20 -9 4 -10 2 -13 -7 -8 -6 4 5 -9 26 -28 20 -20
37 -41 37 -47 0 -5 7 -8 16 -4 14 5 15 3 5 -15 -10 -19 -9 -21 6 -15 12 5 15
2 10 -10 -4 -11 -2 -14 9 -10 8 3 14 -1 14 -11 0 -9 8 -16 21 -16 11 0 17 -4
14 -10 -3 -5 -1 -10 5 -10 6 0 8 -4 5 -10 -3 -5 4 -17 16 -27 41 -34 49 -45
43 -55 -4 -7 -2 -8 4 -4 6 4 9 14 6 24 -3 9 1 6 9 -8 11 -18 12 -29 5 -38 -9
-10 -6 -11 16 -2 34 12 46 13 26 0 -13 -8 -12 -11 4 -23 13 -9 16 -19 11 -28
-7 -11 -5 -11 10 1 17 14 18 13 13 -8 -5 -19 -4 -21 7 -12 12 10 13 8 10 -10
-3 -17 0 -20 16 -15 11 4 19 3 18 -2 -1 -4 -1 -16 0 -27 1 -16 3 -17 18 -5 11
10 14 10 9 2 -4 -7 -2 -13 3 -13 6 0 11 -8 11 -17 0 -9 3 -14 6 -11 3 4 18 -7
33 -23 15 -16 32 -25 37 -21 4 4 2 -1 -5 -10 -15 -21 -9 -23 21 -7 13 7 18 7
14 1 -3 -6 -2 -13 4 -17 5 -3 10 -15 10 -25 0 -13 9 -22 25 -26 14 -3 22 -10
19 -15 -3 -5 4 -9 15 -9 12 0 21 -5 21 -11 0 -5 5 -7 11 -3 8 4 8 0 0 -15 -11
-19 -10 -20 14 -11 15 6 24 6 21 1 -3 -4 4 -18 15 -29 11 -13 15 -22 8 -22 -7
0 -9 -3 -6 -6 4 -4 13 -1 22 6 12 10 15 10 15 -4 0 -10 7 -24 15 -32 12 -12
15 -12 15 -2 0 10 3 10 9 -2 6 -8 8 -17 5 -21 -5 -9 25 -21 37 -14 4 3 11 -5
15 -19 3 -13 15 -33 27 -43 11 -10 17 -12 13 -5 -4 7 -2 12 7 12 8 0 14 -8 13
-17 -1 -13 6 -18 26 -18 14 1 25 -3 22 -6 -2 -4 0 -10 6 -14 6 -4 7 -11 4 -17
-5 -8 -1 -9 11 -4 15 5 16 4 6 -8 -10 -11 -9 -14 1 -12 7 1 19 6 27 10 9 6 12
5 7 -2 -3 -6 -2 -13 4 -17 6 -4 7 -11 4 -17 -5 -7 -2 -8 6 -3 10 6 12 4 7 -7
-4 -12 0 -15 19 -13 20 2 23 -1 18 -18 -4 -12 -2 -17 4 -13 6 3 18 -1 26 -10
9 -8 16 -11 16 -5 0 5 -8 15 -18 20 -9 6 -12 11 -6 11 16 0 34 -22 34 -45 0
-16 2 -17 10 -5 7 11 10 11 10 2 0 -7 4 -10 10 -7 6 3 7 -1 4 -10 -5 -11 -2
-14 10 -9 14 5 21 -8 18 -37 -1 -3 6 -6 14 -6 10 0 11 4 4 11 -5 5 -10 14 -10
19 0 10 34 -23 36 -35 1 -4 3 -11 4 -15 1 -5 2 -11 1 -15 0 -4 10 -3 24 2 25
10 36 -3 13 -14 -7 -3 -2 -3 11 0 14 4 21 2 17 -4 -3 -5 5 -13 19 -16 15 -4
25 -14 25 -24 0 -15 2 -15 10 -2 9 13 10 13 11 0 1 -8 1 -19 0 -24 -1 -5 6 -3
15 5 12 9 15 9 10 1 -6 -11 5 -17 27 -13 4 0 7 -4 7 -10 0 -5 4 -7 10 -4 6 3
7 -1 4 -9 -3 -9 -1 -16 6 -16 6 0 9 -4 6 -8 -3 -5 1 -9 9 -9 8 0 12 3 10 7 -2
4 2 7 9 7 7 0 12 -11 11 -27 -1 -15 4 -27 11 -27 7 0 10 7 7 16 -4 13 -2 13
10 -1 16 -21 32 -24 21 -5 -5 8 -2 7 10 -2 9 -8 15 -20 12 -27 -7 -19 5 -25
22 -11 13 9 14 9 8 0 -5 -9 0 -13 13 -13 19 0 26 -15 22 -42 0 -4 6 -5 14 -2
8 4 26 3 39 0 20 -5 24 -11 20 -34 -3 -21 -2 -24 7 -12 8 11 12 12 16 3 2 -7
12 -13 21 -13 10 0 23 -9 30 -20 7 -11 17 -20 24 -20 7 0 3 7 -8 16 -18 15
-18 15 2 5 12 -6 25 -7 29 -3 3 4 6 2 5 -3 -5 -24 1 -35 20 -35 23 0 25 -10 8
-30 -7 -8 -4 -7 8 3 23 19 44 22 44 6 0 -5 -6 -7 -12 -4 -7 4 -4 0 6 -9 10 -8
22 -13 27 -11 4 3 11 0 15 -6 5 -8 3 -9 -7 -4 -12 8 -12 6 0 -8 15 -18 26 -23
16 -7 -13 22 25 9 43 -15 11 -13 22 -21 26 -18 3 3 6 0 6 -8 0 -11 2 -11 10 1
7 11 10 11 10 2 0 -7 4 -10 10 -7 6 3 10 -3 10 -13 0 -11 7 -23 16 -26 26 -10
29 -7 8 10 -18 15 -18 15 2 5 12 -6 25 -7 29 -3 5 4 5 1 1 -5 -4 -8 -1 -13 8
-13 8 0 18 -4 21 -10 3 -6 -1 -7 -12 -4 -15 4 -14 3 2 -7 11 -7 25 -14 30 -15
6 0 16 -2 23 -2 7 -1 10 -7 7 -12 -4 -6 -3 -10 2 -9 25 4 45 -2 40 -14 -3 -7
3 -13 13 -13 10 0 17 5 16 11 -2 5 -1 7 1 3 2 -4 12 -4 21 -1 14 4 15 3 2 -6
-13 -9 -13 -12 -1 -23 10 -9 12 -10 7 -1 -5 9 -2 11 8 7 9 -3 14 -9 12 -13 -2
-3 7 -11 20 -18 13 -6 22 -7 19 -3 -3 5 8 2 25 -6 16 -9 30 -18 30 -20 0 -3
-5 -2 -12 2 -7 4 -8 3 -4 -5 5 -7 16 -9 28 -5 13 4 18 2 14 -4 -3 -5 1 -13 10
-16 11 -4 15 -2 11 7 -3 8 1 14 9 14 7 0 10 -5 7 -10 -3 -6 2 -16 12 -24 13
-8 14 -13 5 -13 -7 0 -10 -3 -7 -6 4 -4 13 -1 22 6 11 9 15 9 15 1 0 -9 6 -9
23 0 19 11 21 11 9 -3 -10 -13 -10 -18 -1 -24 8 -4 9 -3 5 4 -4 7 -2 12 3 12
6 0 11 -4 11 -8 0 -9 60 -35 78 -33 11 2 17 -12 12 -34 -1 -5 2 -7 6 -3 4 4
13 3 21 -3 7 -6 13 -8 13 -4 0 4 7 2 15 -5 13 -11 15 -10 9 6 -5 17 -5 18 8 2
13 -15 15 -15 24 0 9 13 12 13 19 2 5 -9 4 -11 -3 -6 -7 4 -12 2 -12 -3 0 -6
9 -11 20 -11 11 0 20 -5 20 -11 0 -5 -6 -7 -12 -3 -10 6 -10 4 0 -8 9 -11 25
-15 52 -13 22 2 40 -1 40 -7 0 -5 5 -6 11 -3 6 4 9 0 7 -10 -2 -10 4 -20 12
-22 13 -4 13 -3 0 6 -8 6 -11 11 -6 11 5 0 18 -8 28 -17 17 -15 18 -15 13 -1
-7 17 9 19 33 5 7 -5 12 -3 12 4 0 7 3 9 6 6 4 -4 1 -14 -7 -24 -9 -11 -10
-14 -2 -9 8 4 13 2 13 -6 0 -9 3 -9 10 2 8 13 10 12 10 -4 0 -16 2 -17 17 -5
11 10 14 10 9 2 -4 -8 -2 -13 8 -13 8 0 17 6 19 13 3 7 6 4 6 -7 1 -15 4 -16
15 -7 11 9 16 9 22 0 4 -8 3 -9 -4 -5 -7 4 -12 2 -12 -5 0 -6 8 -9 20 -6 11 3
23 0 27 -5 4 -7 1 -8 -7 -3 -9 5 -11 4 -6 -4 4 -6 16 -9 26 -6 10 3 25 -1 34
-10 14 -15 20 -12 17 7 0 4 11 0 26 -7 15 -8 30 -12 33 -10 4 3 6 -6 5 -19 -2
-14 2 -23 11 -23 7 0 11 4 9 8 -3 4 2 9 10 13 8 3 14 0 12 -6 -1 -6 4 -13 12
-16 8 -2 11 0 8 5 -5 8 25 10 43 3 3 -1 9 -2 13 -1 5 1 6 -3 2 -8 -3 -6 -13
-7 -23 -4 -9 3 -14 3 -10 -1 5 -7 27 -13 51 -15 5 -1 6 -4 4 -9 -3 -4 6 -8 19
-8 24 -2 24 -1 7 13 -14 12 -12 11 9 -1 31 -18 42 -20 33 -6 -3 6 -1 10 4 10
6 0 11 -4 11 -10 0 -5 9 -10 20 -10 14 0 18 -5 13 -17 -5 -15 -3 -14 10 2 16
20 16 20 17 -3 0 -13 4 -20 10 -17 6 4 7 11 4 17 -4 6 0 6 13 -1 11 -6 24 -7
28 -3 5 4 5 1 0 -7 -6 -11 0 -13 29 -9 28 3 36 0 36 -12 0 -13 1 -13 10 0 9
13 10 13 10 0 0 -13 1 -13 10 0 8 13 10 13 10 -2 0 -14 7 -17 30 -14 17 2 30
-1 30 -5 0 -5 -4 -9 -10 -9 -5 0 -10 -5 -10 -11 0 -8 4 -9 13 0 8 6 18 7 22 3
5 -4 5 0 1 8 -4 8 0 6 8 -4 14 -18 16 -18 16 -3 0 16 2 16 24 2 14 -10 27 -12
30 -6 6 10 20 9 48 -3 9 -4 24 -9 34 -10 10 -2 20 -11 24 -21 6 -18 7 -18 13
0 7 17 8 17 29 -1 12 -11 18 -13 14 -6 -5 8 0 12 14 12 17 0 21 -4 16 -18 -5
-14 -4 -14 9 2 8 11 15 14 15 8 0 -7 5 -12 11 -12 5 0 7 5 3 12 -4 7 -3 8 4 4
7 -4 12 -14 12 -22 0 -8 5 -12 10 -9 6 4 8 10 5 15 -3 5 -1 12 5 15 6 4 10 3
9 -2 -3 -18 2 -33 11 -33 5 0 8 6 6 13 -1 6 -1 9 1 4 3 -4 10 -4 15 -1 6 4 17
-1 25 -11 7 -11 13 -13 13 -6 0 7 5 9 10 6 6 -4 8 -9 6 -13 -2 -4 9 -7 24 -7
16 -1 26 3 24 7 -3 4 -1 8 5 8 5 0 12 -6 15 -12 5 -10 7 -10 12 0 3 6 10 12
15 12 6 0 7 -6 3 -12 -5 -9 -2 -9 9 1 15 12 17 11 17 -5 0 -17 1 -17 16 2 13
16 15 16 10 2 -3 -10 -1 -18 4 -18 6 0 10 4 10 10 0 5 7 6 17 3 12 -5 14 -3 8
7 -6 9 -4 11 6 5 7 -5 22 -10 33 -10 10 -1 25 -10 33 -21 13 -18 14 -17 8 11
l-6 30 15 -25 c8 -14 12 -28 10 -32 -3 -5 0 -8 6 -8 6 0 8 11 6 26 -4 21 -2
23 9 14 9 -7 15 -8 18 0 3 6 4 5 3 -2 -2 -7 -8 -12 -14 -11 -6 2 -9 -4 -5 -13
5 -13 7 -13 14 -2 7 11 11 10 20 -2 8 -12 9 -9 4 10 l-6 25 14 -24 14 -24 17
24 c9 13 16 19 16 13 0 -5 -5 -15 -12 -22 -16 -16 4 -16 21 1 11 10 13 10 7 0
-4 -8 -1 -13 8 -13 8 0 17 6 19 13 4 9 6 9 6 0 1 -18 531 -18 531 0 0 8 3 8 8
2 9 -14 65 -18 57 -5 -3 6 -1 10 4 10 6 0 11 -4 11 -8 0 -5 7 -9 15 -9 11 0
12 4 4 14 -9 9 -8 13 0 13 7 0 9 5 5 12 -4 7 -3 8 5 4 6 -4 9 -11 7 -15 -3 -4
0 -13 6 -21 8 -12 9 -12 4 3 -3 9 -1 17 5 17 6 0 8 4 4 9 -3 5 0 13 6 17 7 4
9 3 6 -3 -9 -15 16 -23 34 -12 18 11 32 12 25 0 -9 -14 52 -5 71 10 15 12 16
12 10 -6 -7 -20 -7 -20 8 -1 11 14 15 16 15 5 0 -12 2 -12 10 1 7 11 10 11 10
2 0 -7 4 -10 10 -7 20 12 50 14 50 2 0 -7 4 -6 10 3 5 8 10 10 10 4 0 -6 7
-11 15 -11 8 0 12 4 10 8 -7 11 18 17 40 9 27 -10 45 -2 38 17 -5 13 -3 14 12
5 15 -8 22 -6 33 6 12 15 12 14 7 -8 -5 -20 -4 -22 5 -8 6 9 19 15 30 13 11
-2 18 0 15 6 -9 13 9 11 23 -3 9 -9 15 -8 27 8 8 10 14 15 13 9 -2 -5 2 -10 7
-10 5 0 9 3 8 7 -2 4 4 5 12 2 8 -4 12 -11 9 -18 -3 -6 4 1 16 16 19 24 24 26
43 16 21 -11 21 -10 7 8 -15 18 -14 18 12 1 19 -12 26 -13 22 -4 -4 10 5 13
33 13 22 -1 43 5 49 13 9 11 12 12 19 1 5 -9 4 -11 -3 -6 -7 4 -12 3 -12 -3 0
-5 9 -9 20 -8 15 1 19 6 14 22 -6 20 -6 20 9 1 14 -19 15 -19 26 2 7 13 16 20
21 17 5 -3 14 3 20 12 11 17 11 17 6 1 -3 -10 -1 -18 4 -18 6 0 10 5 10 10 0
7 6 7 18 2 9 -5 23 -7 31 -4 9 3 11 0 6 -8 -5 -9 -4 -11 4 -6 6 4 9 12 6 17
-4 5 1 9 9 9 10 0 13 6 10 18 -3 9 1 6 9 -7 8 -14 16 -19 18 -12 3 7 12 13 22
15 9 1 23 8 30 16 10 12 9 12 -5 1 -12 -9 -18 -10 -18 -2 0 6 3 11 8 12 4 0
17 2 30 3 12 2 22 0 22 -3 0 -3 11 -7 26 -7 23 -2 24 -1 7 12 -16 12 -16 13 9
8 15 -2 30 1 34 7 4 7 3 9 -3 6 -5 -3 -10 0 -10 8 0 10 5 11 18 4 24 -12 32
-11 23 4 -5 9 -4 9 6 0 11 -10 17 -9 32 4 15 13 18 14 13 2 -4 -10 1 -15 14
-15 16 0 18 3 8 15 -10 12 -9 13 1 7 15 -9 64 12 57 24 -3 4 4 10 16 13 16 4
18 3 8 -9 -13 -16 2 -19 17 -4 5 5 21 11 35 12 14 1 26 8 26 15 0 9 -4 10 -13
2 -8 -7 -14 -6 -20 2 -4 7 -3 9 4 5 6 -3 13 -2 17 3 3 6 12 8 21 4 8 -3 22 3
30 13 9 11 13 14 10 8 -3 -7 3 -14 13 -17 15 -4 18 -1 13 12 -5 14 -4 14 13 1
11 -9 16 -10 11 -2 -5 8 0 12 16 12 22 1 22 1 4 15 -21 16 -10 21 13 6 9 -6
23 -4 40 7 25 16 26 16 12 -3 -7 -11 -3 -8 11 6 13 14 30 23 37 21 8 -3 11 0
7 6 -3 6 -1 14 5 18 8 4 9 3 5 -4 -4 -7 -1 -12 9 -12 10 0 13 5 9 13 -6 9 -4
9 8 -1 14 -11 19 -9 33 10 l17 23 -7 -25 c-7 -24 -7 -24 8 -5 8 11 13 23 11
27 -3 4 3 5 12 1 12 -4 15 -3 10 5 -5 8 -1 10 10 5 13 -5 15 -3 10 8 -4 8 0 5
8 -5 13 -16 16 -17 16 -4 0 10 8 14 24 13 19 -2 23 1 19 13 -4 10 -2 13 6 8 6
-4 11 -4 10 1 -3 19 2 22 27 13 16 -7 23 -7 19 0 -6 9 7 14 27 11 4 0 5 5 2
13 -5 12 3 16 44 26 4 1 13 6 20 12 10 8 11 6 5 -8 -6 -17 -5 -17 11 -5 9 8
15 20 12 27 -3 8 0 11 9 7 8 -3 12 -10 8 -16 -3 -6 -1 -7 6 -3 6 4 9 11 6 16
-3 4 2 10 10 14 8 3 15 2 15 -3 0 -4 7 -8 15 -8 10 0 12 4 5 12 -8 9 -6 14 5
19 9 3 13 2 10 -4 -3 -6 -2 -10 3 -10 5 0 12 9 15 20 3 11 10 20 17 20 6 0 8
-6 5 -12 -4 -7 7 2 24 20 31 32 45 34 15 1 -12 -13 -12 -19 -3 -25 7 -4 10 -3
5 4 -3 6 3 16 14 22 11 6 18 15 15 20 -9 14 16 23 28 11 9 -9 7 -11 -8 -6 -16
5 -17 5 -5 -3 16 -12 33 -5 24 9 -3 6 2 9 12 7 13 -2 18 2 16 14 -4 23 17 33
25 12 5 -14 8 -13 19 7 7 13 13 18 14 12 0 -7 4 -13 10 -13 5 0 7 7 4 15 -5
11 -2 13 10 9 9 -3 16 -2 16 4 0 6 -5 12 -12 14 -9 3 -9 6 0 12 7 4 12 2 12
-5 0 -8 4 -8 16 2 13 10 17 10 25 -2 6 -10 9 -11 9 -1 0 7 5 10 11 6 7 -4 7 1
-1 16 -11 20 -10 21 10 10 20 -11 21 -10 10 9 -13 25 -7 27 14 5 10 -10 16
-11 16 -4 0 7 6 10 14 7 10 -4 14 0 11 13 -2 11 1 23 7 26 7 4 8 2 4 -4 -4 -7
-2 -12 3 -12 6 0 11 6 11 14 0 8 7 17 16 20 25 10 29 7 10 -7 -16 -12 -16 -14
-3 -14 9 0 19 7 21 14 4 8 11 11 18 7 9 -5 8 -2 -1 10 -8 9 -10 16 -5 15 20
-3 35 1 30 10 -4 5 6 8 20 6 20 -2 25 1 21 16 -3 13 0 16 11 12 11 -5 13 -3 7
8 -4 8 -5 11 0 7 4 -4 15 -2 24 5 14 10 14 10 3 -5 -12 -15 -11 -17 6 -15 14
1 19 7 16 20 -2 13 1 17 12 13 10 -4 12 -2 8 6 -5 7 2 9 22 5 16 -3 23 -4 17
-1 -7 3 -13 13 -12 22 0 11 2 12 6 5 2 -7 9 -13 14 -13 6 0 7 5 4 10 -3 6 1
10 9 10 9 0 16 5 16 11 0 5 -5 7 -12 3 -7 -4 -8 -3 -4 5 6 9 11 9 22 0 11 -9
14 -9 14 1 0 9 4 9 17 -1 15 -13 15 -12 5 8 -9 16 -9 24 0 29 7 4 8 3 4 -4 -4
-7 -1 -12 9 -12 11 0 15 5 11 16 -3 8 -2 12 4 9 6 -3 10 0 10 7 0 9 3 9 10 -2
8 -13 11 -13 22 -1 10 10 10 12 1 7 -7 -4 -13 -3 -13 2 0 6 7 13 16 16 8 3 13
10 10 15 -3 4 6 7 19 5 16 -1 25 3 25 12 0 8 5 14 11 14 5 0 7 5 3 12 -4 7 -3
8 5 4 6 -4 9 -11 6 -16 -3 -5 0 -12 6 -16 7 -4 10 -3 6 2 -3 5 1 20 9 34 l15
25 -5 -25 c-3 -14 -3 -19 0 -12 3 6 9 10 14 7 5 -3 7 3 5 12 -4 28 14 44 36
32 11 -5 19 -6 18 -2 -4 21 2 32 15 27 8 -3 17 0 21 5 3 6 10 9 15 6 5 -3 7 3
5 15 -2 11 -1 19 3 19 19 -3 32 2 32 12 0 5 -6 7 -12 3 -7 -4 -10 -3 -5 1 4 5
17 10 29 12 12 2 30 11 39 19 10 9 24 13 31 9 7 -3 4 1 -7 11 -20 16 -20 16 3
11 19 -5 23 -2 19 12 -3 12 3 17 20 19 33 3 45 11 37 24 -5 8 -1 9 11 4 15 -5
16 -4 6 8 -10 12 -8 14 11 9 19 -4 20 -3 8 7 -12 10 -11 11 8 7 12 -3 20 -2
17 2 -2 5 3 17 11 27 9 10 13 14 9 7 -6 -13 32 -10 44 3 3 4 -2 4 -11 1 -10
-4 -18 -2 -18 3 0 6 7 10 15 10 8 0 15 7 15 15 0 8 5 15 10 15 6 0 10 -5 10
-12 0 -13 14 -2 16 13 1 5 2 13 3 18 2 14 39 20 45 7 3 -6 3 0 0 13 -4 16 -3
21 6 16 7 -4 10 -1 8 10 -2 10 4 20 12 22 13 4 13 3 1 -5 -11 -8 -8 -10 11 -9
22 2 25 5 16 21 -7 13 -7 16 1 12 6 -4 14 -1 17 8 3 8 14 13 26 11 14 -3 18 0
14 10 -3 9 1 15 9 15 8 0 15 5 15 11 0 5 -5 7 -12 3 -7 -4 -8 -3 -4 5 6 8 12
9 20 2 16 -13 27 -4 19 15 -3 9 1 14 12 14 9 0 13 4 10 10 -3 5 0 7 8 4 8 -3
18 0 23 7 5 8 3 10 -6 4 -9 -5 -11 -4 -6 3 4 7 14 12 23 12 10 0 13 6 9 16 -6
15 -4 15 11 3 11 -9 14 -10 9 -1 -6 11 4 16 25 14 4 -1 6 6 5 15 0 9 9 22 21
28 18 9 20 14 10 24 -9 10 -8 11 6 6 9 -4 24 -4 33 -1 13 5 14 9 4 21 -7 9
-10 18 -6 22 3 3 6 2 6 -4 0 -5 6 -10 14 -10 8 0 12 6 8 15 -3 10 -1 13 6 8 7
-4 12 -2 12 4 0 6 4 9 9 5 5 -3 13 0 17 6 4 8 3 9 -4 5 -7 -4 -12 -2 -12 3 0
6 5 11 11 11 5 0 7 6 3 13 -4 6 3 3 15 -7 21 -19 21 -19 15 -1 -6 14 -4 16 7
10 12 -7 12 -6 1 7 -15 18 2 37 30 33 10 -2 15 2 12 10 -3 7 0 16 5 20 6 3 9
11 5 16 -3 5 -2 9 3 8 15 -4 43 13 43 26 0 8 4 17 10 20 6 4 7 -1 3 -12 -6
-16 -5 -16 10 -4 9 7 14 17 11 22 -3 5 0 9 6 9 6 0 8 5 4 11 -4 7 -1 10 7 7
15 -5 39 14 39 31 0 6 7 11 16 11 8 0 12 5 9 10 -3 6 2 10 12 11 11 0 13 3 5
6 -6 2 -10 9 -7 13 3 5 12 7 20 3 10 -3 15 1 15 12 0 10 -5 13 -12 9 -6 -4 -8
-3 -4 4 3 6 15 9 26 7 13 -3 17 1 13 11 -3 9 1 14 13 14 9 0 15 3 11 6 -10 10
22 36 34 28 7 -4 9 -3 5 4 -3 5 0 13 6 15 10 4 10 6 0 6 -10 1 -10 4 0 15 7 8
16 12 21 9 4 -2 7 3 7 11 0 9 5 16 11 16 5 0 7 4 4 10 -3 6 1 7 9 4 15 -6 22
11 17 39 -1 5 3 6 9 2 5 -3 20 1 32 9 12 9 18 16 12 16 -5 0 -14 -3 -20 -7 -5
-5 0 0 11 11 11 10 20 22 20 26 0 5 4 12 9 17 5 5 6 3 2 -4 -4 -7 -2 -13 3
-13 9 0 15 20 13 41 -1 4 6 6 16 5 11 -1 17 6 17 21 0 12 5 26 9 30 5 5 6 2 1
-6 -5 -9 -3 -12 6 -9 8 3 14 10 14 16 0 6 9 18 20 27 l20 15 -20 -6 c-14 -4
-11 0 8 14 16 11 28 23 28 28 -1 5 3 9 8 9 5 0 13 3 17 8 4 4 2 7 -5 7 -9 0
-9 4 1 14 7 8 17 11 22 8 5 -3 7 2 3 11 -3 10 -2 17 3 17 5 0 7 6 4 14 -3 9 5
21 20 31 14 9 28 25 31 36 4 11 11 16 17 13 7 -5 9 -1 5 8 -3 9 2 23 13 33 10
9 18 25 17 35 -1 15 -9 18 -38 17 -20 -1 -35 -5 -32 -9z m18 -18 c3 -5 1 -10
-4 -10 -6 0 -11 5 -11 10 0 6 2 10 4 10 3 0 8 -4 11 -10z m-199 -152 c4 -7 4
-10 -1 -6 -4 4 -15 2 -24 -5 -14 -11 -14 -10 -2 6 16 20 18 21 27 5z m-9756
-533 c14 -19 14 -19 -2 -6 -10 7 -18 18 -18 24 0 6 1 8 3 6 1 -2 9 -13 17 -24z
m498 -76 c-3 -8 -7 -3 -11 10 -4 17 -3 21 5 13 5 -5 8 -16 6 -23z m8370 -44
c-3 -3 -9 2 -12 12 -6 14 -5 15 5 6 7 -7 10 -15 7 -18z m-131 -77 c-3 -8 -6
-5 -6 6 -1 11 2 17 5 13 3 -3 4 -12 1 -19z m-8362 -177 c-6 -5 -25 10 -25 20
0 5 6 4 14 -3 8 -7 12 -15 11 -17z m880 -141 c3 -5 1 -10 -4 -10 -6 0 -11 5
-11 10 0 6 2 10 4 10 3 0 8 -4 11 -10z m-595 -96 c0 -8 -19 -13 -24 -6 -3 5 1
9 9 9 8 0 15 -2 15 -3z m6940 -208 c0 -2 -7 -7 -16 -10 -8 -3 -12 -2 -9 4 6
10 25 14 25 6z m-107 -51 c-3 -9 -8 -14 -10 -11 -3 3 -2 9 2 15 9 16 15 13 8
-4z m948 -38 c-10 -9 -11 -8 -5 6 3 10 9 15 12 12 3 -3 0 -11 -7 -18z m-7406
-7 c3 -5 1 -10 -4 -10 -6 0 -11 5 -11 10 0 6 2 10 4 10 3 0 8 -4 11 -10z
m7310 -59 c3 -5 2 -12 -3 -15 -5 -3 -9 1 -9 9 0 17 3 19 12 6z m-6031 -53 c-3
-4 -11 -5 -19 -1 -21 7 -19 12 4 10 11 0 18 -5 15 -9z m4618 -70 c-7 -7 -12
-8 -12 -2 0 14 12 26 19 19 2 -3 -1 -11 -7 -17z m-25 -13 c0 -8 -4 -12 -9 -9
-5 3 -6 10 -3 15 9 13 12 11 12 -6z m-4121 -77 c4 -7 3 -8 -4 -4 -7 4 -12 2
-12 -5 0 -7 -3 -10 -6 -6 -6 5 3 27 11 27 2 0 7 -5 11 -12z m-1268 -63 c-3 -3
-9 2 -12 12 -6 14 -5 15 5 6 7 -7 10 -15 7 -18z m3966 -193 c3 -5 -1 -9 -9 -9
-8 0 -12 4 -9 9 3 4 7 8 9 8 2 0 6 -4 9 -8z m116 3 c0 -7 -30 -13 -34 -7 -3 4
4 9 15 9 10 1 19 0 19 -2z m-3160 -289 c0 -2 -7 -7 -16 -10 -8 -3 -12 -2 -9 4
6 10 25 14 25 6z m29 -32 c4 3 8 -1 8 -9 0 -11 -4 -12 -14 -4 -7 6 -13 17 -12
23 0 7 2 6 6 -2 2 -6 8 -10 12 -8z m4248 -116 c-3 -8 -6 -5 -6 6 -1 11 2 17 5
13 3 -3 4 -12 1 -19z m-272 -109 c-4 -5 -12 -9 -18 -8 -9 0 -8 2 1 6 6 2 9 10
6 15 -4 7 -2 8 5 4 6 -4 9 -12 6 -17z m-285 -79 c0 -5 -2 -10 -4 -10 -3 0 -8
5 -11 10 -3 6 -1 10 4 10 6 0 11 -4 11 -10z m-660 -150 c0 -5 -2 -10 -4 -10
-3 0 -8 5 -11 10 -3 6 -1 10 4 10 6 0 11 -4 11 -10z m-256 -18 c3 -5 -1 -9 -9
-9 -8 0 -12 4 -9 9 3 4 7 8 9 8 2 0 6 -4 9 -8z m-194 -26 c0 -2 -7 -7 -16 -10
-8 -3 -12 -2 -9 4 6 10 25 14 25 6z"/>
<path d="M36 5158 c3 -5 10 -6 15 -3 13 9 11 12 -6 12 -8 0 -12 -4 -9 -9z"/>
<path d="M10405 5090 c-3 -5 -1 -10 4 -10 6 0 11 5 11 10 0 6 -2 10 -4 10 -3
0 -8 -4 -11 -10z"/>
<path d="M170 5069 c0 -5 5 -7 10 -4 6 3 10 8 10 11 0 2 -4 4 -10 4 -5 0 -10
-5 -10 -11z"/>
<path d="M390 4901 c0 -6 4 -13 10 -16 6 -3 7 1 4 9 -7 18 -14 21 -14 7z"/>
<path d="M3403 4545 c0 -8 4 -12 9 -9 5 3 6 10 3 15 -9 13 -12 11 -12 -6z"/>
<path d="M4400 4496 c0 -2 8 -10 18 -17 15 -13 16 -12 3 4 -13 16 -21 21 -21
13z"/>
<path d="M6139 4443 c-13 -16 -12 -17 4 -4 16 13 21 21 13 21 -2 0 -10 -8 -17
-17z"/>
<path d="M9774 4348 l-19 -23 25 20 c14 11 27 21 29 22 2 2 0 3 -6 3 -5 0 -18
-10 -29 -22z"/>
<path d="M1175 4350 c3 -5 8 -10 11 -10 2 0 4 5 4 10 0 6 -5 10 -11 10 -5 0
-7 -4 -4 -10z"/>
<path d="M9716 4302 c-3 -5 1 -9 9 -9 8 0 12 4 9 9 -3 4 -7 8 -9 8 -2 0 -6 -4
-9 -8z"/>
<path d="M1285 4280 c3 -5 8 -10 11 -10 2 0 4 5 4 10 0 6 -5 10 -11 10 -5 0
-7 -4 -4 -10z"/>
<path d="M8243 3805 c0 -8 4 -12 9 -9 5 3 6 10 3 15 -9 13 -12 11 -12 -6z"/>
<path d="M4100 3750 c8 -5 20 -10 25 -10 6 0 3 5 -5 10 -8 5 -19 10 -25 10 -5
0 -3 -5 5 -10z"/>
<path d="M7935 3660 c3 -5 8 -10 11 -10 2 0 4 5 4 10 0 6 -5 10 -11 10 -5 0
-7 -4 -4 -10z"/>
<path d="M1570 3556 c0 -2 7 -7 16 -10 8 -3 12 -2 9 4 -6 10 -25 14 -25 6z"/>
<path d="M2855 3511 c-3 -5 -2 -12 3 -15 5 -3 9 1 9 9 0 17 -3 19 -12 6z"/>
<path d="M5396 3432 c-3 -5 1 -9 9 -9 8 0 12 4 9 9 -3 4 -7 8 -9 8 -2 0 -6 -4
-9 -8z"/>
<path d="M3375 3329 c-3 -4 2 -6 10 -5 21 3 28 13 10 13 -9 0 -18 -4 -20 -8z"/>
<path d="M3435 3299 c-3 -4 2 -6 10 -5 21 3 28 13 10 13 -9 0 -18 -4 -20 -8z"/>
<path d="M3483 3295 c0 -8 4 -12 9 -9 5 3 6 10 3 15 -9 13 -12 11 -12 -6z"/>
<path d="M3590 3270 c0 -5 5 -10 11 -10 5 0 7 5 4 10 -3 6 -8 10 -11 10 -2 0
-4 -4 -4 -10z"/>
<path d="M8313 3185 c0 -8 4 -12 9 -9 5 3 6 10 3 15 -9 13 -12 11 -12 -6z"/>
<path d="M3970 3186 c0 -2 6 -9 14 -15 11 -9 16 -9 22 0 4 8 3 9 -4 5 -7 -4
-12 -2 -12 3 0 6 -4 11 -10 11 -5 0 -10 -2 -10 -4z"/>
<path d="M2242 3118 c7 -15 15 -23 17 -17 2 6 -4 18 -13 27 -15 15 -15 15 -4
-10z"/>
<path d="M4441 3104 c0 -11 3 -14 6 -6 3 7 2 16 -1 19 -3 4 -6 -2 -5 -13z"/>
<path d="M7619 2823 c-12 -16 -12 -17 2 -6 9 7 20 9 24 5 5 -4 5 -1 1 6 -9 16
-11 15 -27 -5z"/>
<path d="M7273 2655 c0 -8 4 -12 9 -9 4 3 8 9 8 15 0 5 -4 9 -8 9 -5 0 -9 -7
-9 -15z"/>
<path d="M3420 2560 c-8 -5 -10 -10 -5 -10 6 0 17 5 25 10 8 5 11 10 5 10 -5
0 -17 -5 -25 -10z"/>
<path d="M3515 2540 c3 -5 8 -10 11 -10 2 0 4 5 4 10 0 6 -5 10 -11 10 -5 0
-7 -4 -4 -10z"/>
<path d="M3850 2436 c0 -2 7 -9 15 -16 13 -11 14 -10 9 4 -5 14 -24 23 -24 12z"/>
<path d="M4173 2364 c0 -7 3 -13 6 -12 23 2 41 -4 36 -12 -10 -16 1 -11 16 7
8 9 9 14 3 10 -6 -3 -22 0 -36 7 -20 11 -25 11 -25 0z"/>
<path d="M6236 2362 c-3 -5 1 -9 9 -9 8 0 12 4 9 9 -3 4 -7 8 -9 8 -2 0 -6 -4
-9 -8z"/>
<path d="M4453 2305 c0 -8 4 -12 9 -9 4 3 8 9 8 15 0 5 -4 9 -8 9 -5 0 -9 -7
-9 -15z"/>
<path d="M4696 2282 c-3 -5 1 -9 9 -9 8 0 12 4 9 9 -3 4 -7 8 -9 8 -2 0 -6 -4
-9 -8z"/>
<path d="M4733 2275 c0 -8 4 -12 9 -9 5 3 6 10 3 15 -9 13 -12 11 -12 -6z"/>
<path d="M5635 2260 c3 -5 8 -10 11 -10 2 0 4 5 4 10 0 6 -5 10 -11 10 -5 0
-7 -4 -4 -10z"/>
</g>
</svg>
