<!DOCTYPE svg PUBLIC "-//W3C//DTD SVG 20010904//EN" "http://www.w3.org/TR/2001/REC-SVG-20010904/DTD/svg10.dtd">
<svg version="1.0" xmlns="http://www.w3.org/2000/svg" width="1050px" height="600px" viewBox="0 0 10500 6000" preserveAspectRatio="xMidYMid meet">
<g id="layer101" fill="#d2040b" stroke="none">
 <path d="M4400 4213 c-564 -55 -995 -174 -1450 -399 -192 -95 -393 -224 -377 -241 9 -9 44 3 222 77 83 34 242 92 355 130 1158 386 2247 338 3420 -149 190 -79 220 -89 220 -73 0 25 -245 179 -425 267 -431 210 -912 343 -1390 384 -110 10 -492 13 -575 4z"/>
 <path d="M4577 3754 c-2 -3 -21 -5 -41 -6 -20 -1 -36 -5 -36 -10 0 -5 -4 -7 -8 -4 -24 14 -221 -65 -267 -107 -11 -10 -32 -26 -47 -34 -14 -9 -32 -27 -39 -40 -7 -13 -18 -23 -26 -23 -7 0 -13 -3 -13 -8 0 -4 -15 -23 -32 -42 -18 -19 -37 -43 -43 -52 -5 -9 -27 -41 -47 -71 -34 -50 -109 -189 -114 -212 -1 -5 -14 -44 -28 -85 -15 -41 -26 -75 -25 -75 0 0 -2 -11 -5 -25 -3 -14 -7 -43 -10 -65 -3 -22 -6 -47 -8 -55 -11 -56 33 -320 53 -320 5 0 9 -7 9 -16 0 -31 81 -161 139 -222 43 -46 181 -156 181 -145 0 3 8 -1 18 -9 24 -21 173 -91 180 -84 3 3 10 2 16 -3 20 -16 126 -33 199 -32 40 1 80 2 90 2 9 0 17 5 17 10 0 6 4 8 9 5 5 -4 22 -1 38 6 15 6 32 10 37 9 5 -1 16 5 26 14 9 8 19 12 23 9 3 -3 16 4 29 15 12 12 33 24 45 27 13 4 23 10 23 16 0 5 5 6 10 3 6 -3 10 -1 10 4 0 6 7 11 17 11 9 0 14 3 10 6 -3 3 21 32 54 65 32 32 59 61 59 65 0 5 17 28 60 81 6 7 10 14 10 17 0 3 23 43 50 90 54 92 59 111 33 120 -26 8 -82 42 -104 62 -10 9 -19 13 -19 9 0 -4 -8 -2 -17 6 -10 8 -38 25 -63 38 -25 13 -52 30 -61 37 -8 8 -20 14 -26 14 -6 0 -16 7 -23 15 -7 9 -15 13 -18 10 -3 -3 -12 1 -21 8 -9 8 -36 25 -61 38 -25 13 -55 32 -67 43 -13 11 -23 16 -23 11 0 -4 -8 -2 -17 6 -17 14 -40 27 -93 56 -14 8 -38 23 -55 33 -16 10 -52 31 -80 45 -27 15 -58 34 -67 43 -10 8 -18 11 -18 7 0 -5 -11 2 -25 15 -14 13 -25 20 -25 16 0 -5 -7 -3 -15 4 -21 17 -76 49 -97 56 -10 4 -18 10 -18 14 0 8 50 76 95 131 43 52 176 139 213 139 6 0 12 4 12 8 0 4 8 8 18 8 9 1 33 5 52 9 19 4 40 7 45 7 6 -1 39 -3 75 -5 73 -5 132 -24 260 -85 80 -38 290 -233 290 -269 0 -7 4 -13 10 -13 5 0 17 -15 26 -32 9 -18 20 -35 23 -38 5 -5 14 -22 43 -85 5 -12 18 -26 29 -33 16 -11 19 -9 19 8 0 11 4 20 8 20 4 0 21 27 37 60 17 33 33 60 38 60 4 0 7 6 7 13 0 7 14 32 31 55 18 25 27 47 23 54 -23 39 -107 137 -199 232 -48 50 -177 156 -189 156 -5 0 -73 39 -136 79 -14 8 -29 16 -35 17 -5 1 -23 7 -40 14 -16 6 -31 11 -33 11 -1 -1 -16 6 -32 14 -17 9 -30 12 -30 9 0 -4 -10 1 -22 12 -13 12 -18 13 -13 4 7 -12 6 -13 -7 -3 -8 7 -18 10 -21 7 -3 -3 -12 -2 -19 2 -7 5 -29 9 -48 11 -117 8 -170 10 -173 7z m-397 -823 c25 -13 52 -30 61 -37 8 -8 20 -14 26 -14 6 0 16 -7 23 -15 7 -9 15 -13 18 -10 3 3 12 -1 21 -8 9 -8 36 -25 61 -38 25 -13 55 -32 68 -43 12 -11 22 -16 22 -11 0 4 8 2 18 -6 16 -14 39 -27 92 -56 14 -8 39 -23 55 -33 17 -10 53 -31 80 -45 28 -15 58 -34 68 -43 9 -8 17 -11 17 -7 0 5 10 -1 23 -13 13 -12 26 -20 29 -17 3 3 10 -1 17 -8 12 -15 5 -47 -10 -47 -5 0 -9 -7 -9 -15 0 -8 -9 -19 -20 -25 -11 -6 -18 -15 -15 -19 2 -5 -5 -16 -18 -24 -12 -8 -38 -28 -57 -45 -19 -17 -46 -36 -60 -43 -14 -6 -33 -16 -43 -21 -33 -17 -137 -25 -182 -14 -119 29 -222 88 -303 176 -17 19 -35 43 -38 53 -3 9 -10 17 -15 17 -5 0 -9 8 -9 18 0 10 -4 22 -9 28 -19 21 -37 114 -35 190 1 53 10 105 25 152 20 62 25 70 38 59 9 -7 36 -23 61 -36z"/>
 </g>

</svg>